<?xml version="1.0" standalone="no"?>
<!DOCTYPE svg PUBLIC "-//W3C//DTD SVG 20010904//EN"
 "http://www.w3.org/TR/2001/REC-SVG-20010904/DTD/svg10.dtd">
<svg version="1.0" xmlns="http://www.w3.org/2000/svg"
 width="512.000000pt" height="512.000000pt" viewBox="0 0 512.000000 512.000000"
 preserveAspectRatio="xMidYMid meet">
<metadata>
Created by potrace 1.16, written by Peter Selinger 2001-2019
</metadata>
<g transform="translate(0.000000,512.000000) scale(0.100000,-0.100000)"
fill="#000000" stroke="none">
<path d="M2513 5053 c20 -2 54 -2 75 0 20 2 3 4 -38 4 -41 0 -58 -2 -37 -4z"/>
<path d="M2358 5043 c6 -2 18 -2 25 0 6 3 1 5 -13 5 -14 0 -19 -2 -12 -5z"/>
<path d="M2718 5043 c6 -2 18 -2 25 0 6 3 1 5 -13 5 -14 0 -19 -2 -12 -5z"/>
<path d="M2808 5033 c7 -3 16 -2 19 1 4 3 -2 6 -13 5 -11 0 -14 -3 -6 -6z"/>
<path d="M2398 4943 c6 -2 18 -2 25 0 6 3 1 5 -13 5 -14 0 -19 -2 -12 -5z"/>
<path d="M2653 4943 c9 -2 25 -2 35 0 9 3 1 5 -18 5 -19 0 -27 -2 -17 -5z"/>
<path d="M2308 4933 c7 -3 16 -2 19 1 4 3 -2 6 -13 5 -11 0 -14 -3 -6 -6z"/>
<path d="M2738 4933 c7 -3 16 -2 19 1 4 3 -2 6 -13 5 -11 0 -14 -3 -6 -6z"/>
<path d="M2798 4923 c7 -3 16 -2 19 1 4 3 -2 6 -13 5 -11 0 -14 -3 -6 -6z"/>
<path d="M2838 4913 c7 -3 16 -2 19 1 4 3 -2 6 -13 5 -11 0 -14 -3 -6 -6z"/>
<path d="M2137 4833 c-2 -5 -12 -37 -23 -73 -15 -52 -28 -74 -65 -110 -48 -46
-56 -68 -64 -168 -2 -24 -12 -66 -21 -93 -32 -89 0 -78 131 46 49 46 92 82 97
79 16 -10 8 -60 -17 -99 -13 -22 -25 -55 -25 -72 0 -22 -12 -48 -34 -78 -19
-24 -37 -54 -41 -65 -4 -13 -53 -44 -145 -90 -142 -72 -221 -131 -260 -195
-67 -108 -36 -189 99 -263 30 -17 48 -32 42 -36 -6 -4 -11 -12 -11 -19 0 -6 7
-2 15 10 17 24 123 88 131 80 3 -3 -9 -18 -27 -34 -63 -54 -71 -65 -66 -84 3
-10 2 -17 -3 -14 -4 3 -8 -11 -8 -30 0 -19 3 -33 7 -31 4 3 13 -4 19 -15 12
-19 12 -19 -12 -4 -30 20 -43 73 -26 106 10 18 10 21 0 13 -21 -20 -29 -81
-14 -103 14 -19 12 -21 -28 -31 -24 -6 -52 -14 -63 -17 -11 -3 -39 -21 -62
-39 -23 -19 -49 -34 -58 -34 -9 0 -29 -7 -45 -15 -33 -17 -46 -62 -36 -119 6
-29 0 -43 -40 -102 -48 -70 -223 -295 -273 -349 -15 -16 -60 -59 -99 -93 -40
-35 -91 -91 -114 -125 -23 -34 -71 -93 -106 -132 -77 -84 -118 -152 -127 -211
-3 -25 -10 -42 -15 -39 -4 3 -6 -4 -3 -15 3 -10 -2 -41 -11 -67 -59 -172 -33
-348 74 -489 21 -28 44 -71 50 -95 17 -61 34 -93 97 -177 45 -61 57 -87 77
-166 27 -105 52 -159 98 -211 43 -50 77 -65 146 -65 51 0 74 7 171 55 112 55
135 62 145 47 6 -10 -36 -156 -46 -160 -5 -2 -6 -7 -3 -12 3 -5 -10 -71 -29
-147 -47 -184 -107 -465 -102 -470 2 -3 7 6 11 19 37 128 184 556 206 599 28
56 88 129 106 129 5 0 14 -12 21 -27 11 -28 11 -27 9 9 -2 27 1 38 11 38 16 0
16 0 -28 -245 -70 -387 -98 -646 -41 -375 44 211 92 414 120 513 21 72 66 177
76 177 3 0 4 -4 0 -9 -3 -6 -23 -97 -45 -203 -21 -106 -52 -257 -69 -336 -17
-78 -31 -148 -31 -155 0 -7 29 74 64 178 35 105 80 222 100 260 l36 70 -6 -74
c-3 -41 -15 -104 -25 -140 -11 -36 -19 -69 -19 -73 0 -55 306 166 345 248 10
21 26 65 35 98 10 34 19 54 19 45 2 -28 -68 -392 -89 -468 -29 -104 -19 -99
13 6 21 69 40 105 84 165 l58 78 3 -48 c3 -40 -6 -259 -23 -527 l-4 -70 14 85
c7 47 18 175 25 285 12 221 30 428 37 422 2 -3 -1 -67 -7 -143 -18 -243 -18
-254 -10 -254 5 0 18 29 30 65 12 36 36 82 54 104 56 67 99 141 133 230 20 51
31 72 28 51 -4 -30 -24 -274 -40 -490 -4 -55 -3 -59 5 -28 5 21 24 63 42 95
32 56 32 60 38 220 4 89 8 164 11 166 2 3 14 9 26 16 18 9 22 8 26 -7 3 -9 6
6 7 33 l3 50 7 -60 c4 -33 13 -187 20 -342 7 -155 17 -280 21 -277 5 3 6 46 4
97 -3 51 -7 202 -9 337 -4 238 4 286 18 104 4 -49 18 -189 32 -311 13 -123 25
-244 26 -270 1 -27 4 4 7 67 l6 115 30 -177 c16 -98 31 -176 33 -174 2 2 -4
64 -12 138 -17 141 -41 439 -52 652 -6 108 -5 128 7 124 10 -3 20 -56 36 -204
45 -417 88 -713 100 -700 2 2 -1 57 -6 122 -6 66 -22 249 -36 408 -29 334 -30
359 -12 354 23 -8 36 -53 81 -279 25 -123 50 -237 56 -254 14 -43 4 85 -21
258 -11 76 -19 146 -17 155 6 28 76 -433 79 -521 2 -33 3 -36 6 -13 3 16 -2
106 -11 200 -32 349 -36 407 -28 422 5 9 26 -78 56 -236 61 -314 118 -566 111
-489 -3 31 -28 178 -56 328 -27 150 -49 277 -47 283 2 6 17 -42 33 -106 17
-64 31 -112 33 -107 4 12 -31 201 -52 279 -14 51 -13 56 9 104 l24 51 10 -39
c5 -22 19 -86 31 -144 36 -179 181 -732 187 -713 2 6 -19 104 -46 219 -50 209
-115 534 -125 629 -6 53 17 -11 122 -349 47 -148 66 -176 38 -55 -11 49 -11
60 -2 46 8 -9 41 -113 76 -230 34 -116 68 -230 76 -252 14 -40 14 -40 8 -5
-18 111 -118 481 -191 708 -47 145 -82 266 -79 269 3 3 -1 21 -9 40 -19 44
-19 43 2 43 14 0 13 3 -5 20 -28 26 -31 90 -4 90 9 0 100 20 201 45 100 25
191 45 201 45 10 0 39 -9 65 -20 l46 -20 -21 -32 -21 -33 26 32 c25 29 28 30
63 21 20 -6 84 -8 142 -6 166 7 240 51 296 173 67 145 82 324 48 556 -6 45 -6
46 37 77 33 24 53 32 86 32 33 0 50 6 68 24 13 14 32 27 42 30 10 3 39 27 66
52 35 34 47 54 47 76 0 42 -24 45 -84 13 -51 -28 -53 -28 -79 -10 -48 31 -50
47 -14 102 57 90 101 147 146 189 38 36 42 43 32 62 -9 17 -21 22 -52 22 -32
0 -47 -7 -84 -41 -45 -42 -97 -61 -158 -59 -17 0 -42 -11 -65 -30 -53 -44 -75
-38 -27 8 55 50 106 133 112 181 5 33 2 41 -17 51 -15 8 -20 8 -16 1 4 -6 4
-20 1 -31 -5 -16 -10 -18 -26 -10 -38 21 -12 79 30 65 15 -5 24 1 36 26 18 34
10 53 -21 47 -12 -2 -20 -13 -22 -31 -2 -15 -8 -25 -13 -21 -17 10 -47 -25
-54 -62 -8 -47 -77 -114 -116 -114 -18 0 -34 -8 -44 -22 -44 -62 -97 -163
-102 -194 -5 -31 -9 -34 -37 -33 -34 2 -80 -14 -91 -30 -3 -6 -19 -11 -35 -11
-16 0 -47 -7 -68 -15 l-38 -16 -56 53 c-31 29 -71 65 -89 79 -55 43 -248 361
-366 602 -19 37 -42 71 -51 75 -10 4 -29 15 -42 25 -14 10 -54 36 -89 58 -54
34 -62 43 -56 62 18 57 17 152 -3 212 -11 33 -20 60 -19 60 1 0 33 16 70 35
79 40 151 99 172 141 19 36 19 92 1 127 -36 69 -200 190 -352 258 -72 33 -85
42 -100 77 -10 21 -32 51 -49 65 -26 23 -125 176 -125 195 0 3 10 8 23 10 15
3 13 4 -5 2 -16 -1 -28 2 -28 5 0 16 -155 132 -207 156 -71 32 -277 104 -297
104 -8 0 -17 -3 -19 -7z m156 -59 c171 -60 198 -74 285 -152 54 -48 71 -70 67
-83 -4 -12 4 -27 24 -45 41 -36 39 -46 -4 -28 -19 7 -47 14 -62 13 -27 0 -26
-1 8 -14 72 -26 199 -125 199 -155 0 -9 -5 -8 -19 4 -26 23 -108 54 -167 61
-59 8 -199 -10 -271 -34 -29 -10 -53 -16 -53 -14 0 10 129 64 177 73 62 13 71
25 12 17 -36 -5 -38 -4 -22 9 27 20 10 17 -53 -11 -31 -14 -61 -22 -67 -18 -6
3 -7 1 -3 -5 4 -7 4 -12 -1 -13 -4 0 -18 -2 -30 -3 -13 -2 -23 -2 -23 -1 0 1
9 21 21 44 27 57 99 126 152 145 l42 16 -52 -6 c-60 -7 -68 5 -33 49 35 44 21
41 -16 -5 -19 -23 -62 -71 -94 -104 -32 -34 -71 -80 -86 -103 -14 -23 -28 -41
-31 -41 -9 0 34 70 87 139 31 42 65 88 74 103 27 42 2 41 -30 -2 l-29 -39 -5
57 c-5 54 -6 57 -30 53 -14 -1 -28 -8 -31 -13 -4 -6 -19 13 -34 41 -15 28 -31
48 -35 46 -4 -3 -18 -45 -30 -95 -22 -87 -23 -90 -51 -90 -25 0 -29 -4 -34
-37 -13 -71 -25 -108 -46 -133 -17 -20 -20 -21 -14 -5 4 11 14 61 22 112 15
89 17 93 54 119 41 28 60 63 79 142 7 28 14 52 17 52 2 0 64 -21 136 -46z
m456 -454 c46 -22 82 -42 80 -44 -2 -2 -33 2 -69 10 -117 25 -380 10 -476 -26
-61 -24 -40 -6 46 37 170 86 275 92 419 23z m30 -55 c78 -19 203 -77 317 -146
90 -55 122 -83 58 -51 -56 28 -182 69 -268 87 -107 22 -138 17 -36 -6 344 -77
496 -192 420 -316 -28 -46 -121 -111 -205 -143 -45 -17 -26 5 21 24 64 26 160
99 179 136 44 85 -44 159 -283 239 -141 47 -239 62 -407 62 -240 0 -406 -31
-611 -116 -127 -52 -227 -116 -265 -169 -16 -21 -29 -33 -29 -25 0 21 110 122
170 155 83 46 245 109 334 130 43 10 74 20 68 22 -19 6 -182 -38 -288 -77 -58
-22 -133 -58 -167 -81 l-62 -40 40 36 c22 20 104 68 181 105 321 156 632 221
833 174z m-45 -204 c45 -11 52 -17 61 -54 7 -27 6 -27 -18 -16 -20 9 -36 8
-77 -6 -28 -9 -53 -15 -54 -14 -2 2 -8 13 -15 24 -10 17 -11 13 -8 -25 8 -90
30 -195 46 -214 9 -11 11 -16 5 -13 -7 4 -14 0 -18 -8 -9 -25 -65 -19 -75 8
-5 12 -5 23 0 25 12 5 11 76 -2 131 -7 33 -6 47 3 59 8 10 9 13 1 9 -7 -4 -15
4 -21 20 -7 18 -11 22 -11 11 -1 -10 -8 -18 -16 -18 -22 0 -92 37 -115 60 -16
16 -25 18 -47 10 -26 -9 -27 -9 -9 5 16 12 52 15 175 15 86 0 173 -5 195 -9z
m-477 -43 c-3 -8 -6 -5 -6 6 -1 11 2 17 5 13 3 -3 4 -12 1 -19z m623 -114 c32
-94 44 -119 73 -154 14 -16 10 -14 -11 6 -20 18 -43 57 -57 95 -27 71 -33 70
-11 -3 22 -72 33 -88 105 -158 74 -71 92 -112 90 -207 -1 -77 -14 -89 -15 -14
0 47 -5 77 -17 95 -10 14 -16 26 -14 26 2 0 -27 30 -64 68 -58 58 -70 76 -89
137 -12 39 -23 106 -25 150 -2 44 -1 71 2 60 3 -11 18 -57 33 -101z m-434 75
c3 -5 -8 -9 -24 -9 -16 0 -41 -9 -55 -20 -45 -35 -52 -19 -12 29 23 27 29 29
55 19 17 -5 33 -14 36 -19z m-210 -37 c-23 -67 -70 -118 -131 -140 -46 -16
-52 -22 -73 -72 -17 -41 -22 -47 -18 -23 3 18 1 35 -3 38 -5 2 -12 -15 -15
-39 -4 -27 -15 -51 -29 -62 -22 -19 -22 -19 -4 2 10 12 17 37 17 60 0 57 28
105 84 141 26 17 62 44 78 60 26 24 29 25 19 6 -6 -12 -17 -26 -24 -30 -6 -4
-19 -17 -27 -28 -13 -16 -10 -16 18 4 18 12 46 46 62 74 16 29 30 48 30 44 0
-15 -31 -82 -48 -102 -17 -20 -17 -20 5 -2 11 10 32 42 45 72 28 65 36 64 14
-3z m556 -8 c4 -21 10 -54 14 -72 5 -26 1 -39 -22 -69 -16 -21 -31 -55 -34
-78 l-5 -39 -42 65 c-40 60 -56 108 -33 94 6 -3 7 1 4 9 -3 9 -10 14 -14 11
-5 -3 -5 8 0 24 4 16 6 31 4 33 -2 2 21 3 51 1 62 -3 75 7 46 36 -13 13 -16
21 -8 25 23 9 32 -1 39 -40z m-382 6 c-8 -5 -19 -10 -25 -10 -5 0 -3 5 5 10 8
5 20 10 25 10 6 0 3 -5 -5 -10z m50 0 c-12 -8 -12 -10 -1 -10 8 0 12 -3 8 -6
-9 -9 -28 6 -22 17 4 5 12 9 18 9 7 0 6 -4 -3 -10z m-102 -36 c-2 -10 4 -19
12 -21 13 -4 13 -3 1 5 -20 14 36 24 104 20 50 -3 50 -3 53 -40 2 -24 10 -42
21 -48 10 -5 22 -17 25 -27 6 -14 5 -16 -5 -5 -24 23 -45 12 -124 -70 -67 -69
-80 -78 -83 -60 -2 11 6 30 17 41 12 12 21 26 21 32 0 23 -22 49 -41 49 -27 0
-69 47 -69 77 0 16 11 30 33 43 39 24 39 24 35 4z m-161 -89 c0 -8 -4 -12 -9
-9 -5 3 -6 10 -3 15 9 13 12 11 12 -6z m-530 -27 c-3 -7 -5 -2 -5 12 0 14 2
19 5 13 2 -7 2 -19 0 -25z m500 -29 c-7 -18 -30 -52 -51 -78 l-40 -46 54 50
c56 52 51 39 -12 -32 -42 -47 -73 -138 -64 -187 4 -22 3 -27 -4 -16 -5 8 -10
29 -11 45 0 17 -3 24 -6 17 -14 -36 9 -104 53 -153 24 -27 44 -46 44 -43 0 4
10 -2 23 -13 43 -39 52 -34 11 5 -23 23 -40 43 -37 45 2 3 -1 8 -8 13 -8 4
-10 3 -5 -4 12 -20 0 -13 -20 10 -15 19 -16 20 -1 9 21 -16 21 -5 2 29 -8 14
-14 36 -14 50 1 24 1 24 9 -4 5 -15 33 -60 64 -100 30 -39 56 -77 58 -85 2 -8
11 -23 21 -33 18 -19 24 -43 7 -33 -5 3 -10 12 -10 18 0 7 -18 23 -40 37 -22
14 -40 28 -40 33 0 4 -4 6 -9 2 -5 -3 -12 -1 -16 5 -4 6 -11 8 -16 5 -5 -4 -9
-1 -9 5 0 6 -5 8 -12 4 -7 -5 -8 -3 -4 5 5 8 3 11 -7 9 -9 -2 -16 1 -16 5 0 4
-13 23 -29 42 -66 74 -59 173 18 270 22 28 56 74 76 102 39 57 59 62 41 12z
m98 -41 c3 -40 -2 -65 -20 -103 -28 -59 -30 -57 -10 9 8 27 15 74 15 104 0 69
11 62 15 -10z m295 42 c0 -13 -7 -20 -20 -20 -13 0 -20 7 -20 20 0 13 7 20 20
20 13 0 20 -7 20 -20z m-777 -84 c29 -14 46 -25 39 -26 -24 0 -110 49 -131 76
-32 41 -25 49 10 10 16 -19 54 -46 82 -60z m508 17 l2 -38 7 35 c6 27 8 16 9
-46 0 -44 4 -83 7 -86 18 -19 165 85 164 117 0 5 -17 -9 -38 -32 -35 -39 -98
-80 -109 -70 -2 3 5 8 17 12 13 4 49 31 81 61 46 43 66 54 92 54 64 0 77 -43
20 -67 -21 -8 -55 -29 -77 -46 -21 -17 -59 -36 -85 -43 -34 -10 -39 -13 -19
-13 l27 -1 -24 -52 c-30 -64 -31 -88 -5 -163 15 -43 20 -81 18 -144 -1 -96 11
-137 63 -202 46 -59 26 -60 -29 -3 -54 56 -79 121 -67 176 18 88 17 129 -5
180 -16 36 -21 66 -18 103 4 64 -7 64 -15 0 -5 -31 -2 -59 9 -88 30 -81 37
-113 30 -142 l-7 -29 -19 42 c-11 23 -37 68 -60 99 -36 51 -40 62 -40 116 0
39 11 93 31 156 19 59 28 107 25 123 -3 16 -1 28 4 28 6 0 11 -17 11 -37z
m560 -105 c12 -24 16 -38 9 -31 -7 6 -18 22 -24 35 -6 12 -18 23 -25 23 -8 0
-16 7 -18 15 -4 13 -3 13 7 0 10 -13 11 -12 6 3 -3 10 -6 24 -6 30 0 7 -5 6
-11 -3 -9 -12 -10 -12 -5 3 3 11 9 31 13 45 5 23 8 20 19 -26 8 -29 23 -71 35
-94z m-42 3 c115 -117 131 -148 130 -261 0 -79 -1 -83 -14 -60 -8 14 -15 36
-15 50 0 19 -3 21 -9 11 -9 -14 -14 -3 -37 93 -4 17 -32 57 -63 90 -31 34 -66
75 -78 91 -12 17 -23 24 -23 17 0 -9 -11 -7 -39 8 -54 27 -58 38 -25 65 27 22
30 23 54 7 14 -8 67 -58 119 -111z m-891 4 c-6 -14 -13 -23 -15 -21 -5 5 15
46 22 46 3 0 -1 -11 -7 -25z m705 8 c-13 -2 -33 -2 -45 0 -13 2 -3 4 22 4 25
0 35 -2 23 -4z m387 -45 c21 -45 24 -84 13 -138 l-6 -33 -13 49 c-15 56 -17
79 -4 49 8 -18 9 -17 9 8 1 15 -6 44 -14 64 -17 39 -17 43 -10 43 4 0 15 -19
25 -42z m-349 19 c9 -7 26 -31 38 -55 23 -46 36 -55 26 -19 -5 18 -2 16 14 -8
22 -32 28 -28 10 8 -9 19 -7 18 10 -3 11 -14 27 -45 35 -70 l14 -45 1 38 c1
20 5 37 11 37 5 0 6 -7 3 -17 -4 -10 -2 -14 4 -10 7 4 17 -10 26 -35 9 -24 36
-88 61 -143 49 -107 55 -145 31 -202 -19 -46 -41 -70 -80 -90 -28 -15 -27 -13
13 30 23 26 42 52 43 59 4 63 3 118 -3 118 -5 0 -8 9 -8 21 0 21 -40 122 -46
116 -2 -2 5 -26 16 -55 38 -100 36 -208 -6 -242 -12 -11 -12 -7 1 23 8 20 15
47 15 59 0 35 -18 91 -35 113 -14 17 -14 16 0 -13 24 -50 21 -122 -8 -185 -28
-61 -100 -163 -105 -148 -2 5 13 50 33 100 19 50 38 118 41 150 6 57 -9 156
-26 166 -5 3 -4 -11 2 -32 5 -20 8 -73 6 -117 -3 -67 -10 -95 -40 -161 -20
-44 -45 -110 -55 -148 l-19 -67 -17 90 c-20 108 -34 137 -82 176 -19 16 -51
42 -69 57 -19 15 -42 47 -50 70 l-16 42 5 -40 c6 -48 28 -80 86 -121 47 -33
83 -88 94 -144 5 -31 3 -29 -19 17 -23 49 -92 113 -120 113 -6 0 10 -14 36
-30 44 -28 78 -72 78 -102 0 -7 -13 4 -30 24 -16 20 -50 48 -74 62 -25 14 -54
39 -65 55 -23 32 -27 46 -9 35 7 -4 8 -3 4 5 -4 6 -11 9 -16 6 -14 -9 -22 27
-31 140 -5 61 -11 138 -15 171 -4 38 -2 69 5 80 9 17 10 17 11 -6 1 -18 5 -12
16 22 15 50 34 71 35 41 0 -17 1 -17 8 0 6 17 8 17 18 -5 6 -13 18 -44 27 -69
15 -41 61 -100 69 -88 2 2 -3 27 -10 54 -12 47 -12 47 -10 11 l3 -39 -18 23
c-26 32 -22 60 13 103 22 27 38 37 60 37 19 0 29 5 29 15 0 11 -11 15 -40 15
-22 0 -40 5 -40 10 0 14 92 12 111 -3z m-574 -29 c-3 -8 -6 -5 -6 6 -1 11 2
17 5 13 3 -3 4 -12 1 -19z m-66 -186 l24 -27 -24 20 c-31 26 -51 68 -50 102 0
21 3 17 13 -20 7 -26 24 -60 37 -75z m-227 78 c-5 -5 -32 -16 -58 -24 -27 -8
-45 -11 -39 -5 5 5 29 15 54 23 56 18 55 18 43 6z m280 -26 c3 -8 2 -12 -4 -9
-6 3 -10 10 -10 16 0 14 7 11 14 -7z m-162 -125 c106 -109 109 -112 129 -187
30 -114 39 -115 14 -2 -8 36 -14 68 -15 73 0 4 22 -7 49 -25 26 -18 56 -37 65
-43 17 -10 51 -153 58 -240 2 -22 6 -42 9 -45 4 -3 14 -68 23 -145 19 -160 56
-365 92 -509 14 -54 23 -105 20 -113 -7 -16 30 -93 44 -93 5 0 3 15 -5 33 -15
38 -65 248 -89 377 -13 71 -32 240 -61 529 l-5 54 35 -54 c20 -30 55 -71 78
-91 l42 -38 7 -92 c3 -51 10 -236 14 -410 6 -271 5 -318 -7 -318 -17 1 -130
27 -134 32 -1 2 -5 29 -8 62 -5 51 -4 56 8 40 8 -11 15 -27 15 -36 0 -10 5
-18 11 -18 7 0 8 7 4 18 -4 9 -17 87 -30 172 l-23 155 1 -115 c1 -63 -4 -132
-10 -152 -6 -21 -7 -38 -2 -38 5 0 9 -10 9 -22 0 -18 -2 -20 -9 -9 -7 11 -10
7 -14 -15 -2 -16 -4 79 -4 211 0 132 4 245 8 250 4 6 5 53 1 105 l-7 95 -6
-95 c-4 -52 -14 -149 -23 -215 -9 -65 -16 -180 -16 -253 l0 -135 -41 6 c-22 3
-44 8 -47 12 -4 4 -6 217 -5 473 3 518 -9 684 -21 302 -8 -259 -28 -451 -39
-390 -22 111 -57 352 -67 456 -6 66 -15 133 -20 150 -10 29 -10 29 -5 -6 2
-19 6 -66 9 -105 l5 -70 -19 60 c-11 33 -23 67 -27 75 -3 8 -7 18 -7 22 -1 3
-5 10 -9 14 -4 4 -27 50 -51 100 -81 171 -138 239 -208 249 l-33 5 31 -12 c55
-23 90 -56 122 -115 41 -78 115 -262 140 -348 35 -119 34 -144 -1 -55 -18 47
-39 94 -46 105 l-13 20 7 -20 c4 -11 27 -80 51 -153 47 -140 80 -311 108 -554
20 -171 20 -188 1 -188 -8 0 -15 6 -16 13 -1 32 -10 71 -38 182 -17 66 -47
233 -67 370 -19 138 -40 272 -45 299 -5 26 -6 52 -3 57 3 5 0 9 -5 9 -6 0 -11
8 -11 18 0 20 -63 188 -90 241 -34 66 -108 119 -146 104 -9 -3 -20 -15 -24
-27 -6 -15 -9 -17 -9 -5 -1 9 7 26 17 37 18 21 181 81 222 82 18 0 52 -29 132
-111z m17 71 c10 -5 21 -16 25 -25 4 -11 -3 -9 -24 7 -39 29 -40 39 -1 18z
m1173 -43 c26 -20 56 -56 75 -92 66 -123 109 -315 85 -375 l-11 -25 0 24 c-1
33 -33 202 -37 198 -2 -2 3 -64 11 -138 10 -87 14 -220 14 -379 l-2 -245 -13
145 c-31 347 -77 555 -164 735 -27 55 -50 107 -52 115 -3 16 29 70 42 70 5 0
28 -15 52 -33z m118 -79 c0 -4 9 -8 20 -8 64 0 85 -193 69 -625 -6 -159 -15
-296 -19 -303 -11 -22 -21 436 -10 513 23 169 7 349 -36 394 -8 9 -6 -7 7 -50
27 -88 20 -121 -9 -41 -13 34 -36 87 -52 117 l-29 55 30 -22 c16 -12 29 -25
29 -30z m-188 -49 c15 -10 84 -216 106 -319 32 -146 52 -319 59 -500 5 -140 4
-167 -9 -178 -13 -10 -16 0 -22 80 -3 50 -6 113 -6 139 0 42 -2 48 -17 42 -10
-3 -15 -3 -11 2 4 4 3 15 -1 24 -5 9 -19 74 -31 144 -23 136 -57 277 -89 367
-28 77 -26 42 4 -65 61 -224 75 -316 82 -539 l6 -213 -46 -31 c-52 -37 -57
-38 -57 -16 0 8 -4 13 -9 9 -5 -3 -12 7 -14 22 -3 18 -5 10 -7 -22 l-2 -50 -8
40 c-4 22 -13 126 -20 230 -13 211 -37 445 -46 454 -4 3 -4 -19 -1 -49 3 -30
13 -198 23 -373 l18 -318 -50 -47 c-28 -26 -61 -60 -75 -77 -13 -16 7 1 46 39
38 37 92 79 120 93 27 14 62 34 76 44 15 10 39 23 55 29 l28 11 -19 -22 -20
-22 27 18 c15 9 25 22 21 28 -3 6 -1 7 5 3 6 -3 33 7 59 23 71 43 149 69 164
54 12 -12 -73 -57 -291 -153 -136 -60 -260 -182 -280 -275 -12 -54 -54 -142
-46 -95 14 76 14 90 6 116 -7 24 -9 16 -11 -41 l-2 -70 -7 50 -7 50 -2 -45
c-2 -35 -4 -41 -11 -25 -12 29 -12 89 1 140 15 60 75 127 139 154 32 14 50 28
50 39 0 9 -9 176 -21 370 -19 303 -20 355 -8 363 10 6 10 9 2 9 -8 0 -13 12
-13 28 0 20 9 35 31 51 18 13 44 51 61 88 29 61 30 70 25 149 -7 103 0 134 21
84 8 -19 18 -38 24 -41z m-1387 45 c9 -9 14 -23 11 -30 -3 -8 0 -11 9 -8 29
11 93 -162 124 -336 46 -254 51 -470 14 -579 -20 -59 -29 -67 -55 -47 -17 12
-17 17 3 92 27 103 29 249 5 419 -28 204 -36 225 -28 75 11 -212 1 -329 -27
-322 -7 1 -11 -18 -12 -55 -1 -32 -4 -81 -7 -110 l-7 -51 -65 39 c-154 95
-308 161 -369 158 -17 -1 -12 -4 17 -10 143 -28 576 -292 651 -397 23 -32 20
-42 -10 -35 -12 4 -18 11 -15 20 4 9 -22 32 -77 67 -89 59 -350 200 -341 184
3 -5 -6 -6 -23 -1 -46 13 -252 6 -332 -11 -100 -21 -190 -65 -240 -116 -92
-95 -137 -265 -84 -322 16 -17 19 -27 12 -41 -12 -20 9 -33 40 -24 18 4 18 3
4 -32 -11 -25 -14 -54 -10 -96 l6 -60 -19 25 c-86 114 -111 282 -65 438 44
146 243 246 534 266 35 3 65 7 68 10 3 2 -15 10 -38 16 -29 8 -88 11 -169 7
-158 -6 -273 -37 -327 -88 l-37 -34 20 31 c23 38 87 115 129 156 37 36 121 78
245 123 52 19 91 34 85 34 -9 0 -188 -47 -244 -65 l-25 -7 24 34 c46 67 167
175 236 212 38 20 63 37 57 37 -7 0 15 40 50 90 34 49 85 129 112 177 28 48
68 105 90 127 22 21 39 43 38 47 -5 15 25 10 42 -7z m1736 -237 c78 -152 261
-425 308 -462 49 -38 111 -98 111 -107 0 -22 -30 -16 -58 11 -26 27 -38 31
-84 31 -42 0 -64 -6 -100 -29 -42 -27 -67 -51 -53 -51 3 0 28 11 55 25 65 33
117 40 160 22 l35 -14 -53 -8 c-34 -4 -99 -30 -180 -71 -70 -35 -130 -60 -135
-55 -4 4 -3 28 3 52 15 59 24 449 12 519 l-10 55 -1 -47 c-1 -41 -8 -101 -40
-343 l-8 -60 -2 50 c0 28 4 113 9 189 8 113 7 161 -5 248 -22 157 -22 157 36
45z m1060 -60 c-8 -8 -11 -5 -11 9 0 27 14 41 18 19 2 -9 -1 -22 -7 -28z
m-3080 -12 c-33 -56 -102 -147 -108 -141 -5 5 13 34 80 124 45 60 58 68 28 17z
m1092 -88 c8 4 7 1 -1 -9 -9 -12 -10 -17 -1 -20 6 -2 12 -17 13 -34 2 -17 6
-37 11 -44 11 -17 32 -331 41 -604 l7 -218 -24 7 c-13 4 -26 9 -28 11 -3 3 -8
102 -12 222 -4 119 -13 285 -18 367 -11 154 -13 350 -4 327 2 -6 10 -9 16 -5z
m370 -74 c3 -35 1 -63 -4 -63 -5 0 -9 -7 -9 -15 0 -8 4 -15 8 -15 8 0 25 -186
37 -400 3 -52 8 -118 10 -147 l5 -51 -43 -25 -44 -24 -2 56 c-3 82 -29 386
-47 536 -13 116 -13 131 0 141 9 6 13 14 10 17 -3 3 4 10 15 17 12 6 21 16 21
23 0 7 5 18 12 25 17 17 24 0 31 -75z m1570 62 c18 -13 18 -15 1 -50 l-17 -37
-25 25 c-24 25 -24 25 -6 51 22 30 23 30 47 11z m-53 -82 c0 -7 -6 -13 -13
-13 -7 0 -18 -5 -25 -12 -9 -9 -7 -14 5 -23 14 -11 14 -12 -1 -18 -9 -4 -16
-2 -16 3 0 6 -4 10 -10 10 -5 0 -7 -7 -4 -15 5 -12 -3 -15 -35 -15 -40 0 -41
-1 -34 -27 4 -16 8 -42 8 -60 0 -33 10 -32 18 2 3 11 5 -3 6 -30 1 -53 -19
-95 -44 -95 -7 0 -27 -11 -43 -25 -16 -13 -32 -22 -35 -19 -3 3 -11 -4 -17
-16 -6 -12 -14 -20 -16 -17 -6 6 17 57 27 57 4 0 7 30 6 68 -1 61 3 74 44 149
39 73 48 83 84 93 22 7 49 18 59 26 21 14 36 5 36 -23z m370 7 c0 -5 -8 -14
-19 -19 -10 -6 -37 -26 -60 -46 -24 -19 -47 -33 -52 -30 -14 9 9 58 39 82 27
23 92 32 92 13z m-2095 -44 c21 -43 65 -56 65 -20 0 13 4 24 9 24 10 0 26
-117 51 -390 22 -233 24 -308 11 -328 -5 -8 -11 36 -16 110 -4 68 -10 152 -15
188 -6 57 -7 60 -9 20 0 -25 4 -107 9 -183 6 -80 6 -144 1 -155 -14 -27 -31
-109 -31 -148 l0 -36 -33 29 c-18 16 -49 39 -69 51 l-35 22 -7 133 c-13 258
-36 623 -42 664 -6 40 -5 42 22 46 67 10 73 8 89 -27z m1931 -42 c-3 -9 -6
-39 -7 -67 l0 -52 -19 42 c-10 23 -28 48 -39 55 -28 17 -26 26 7 31 57 9 64 8
58 -9z m-96 -19 c7 -9 10 -19 6 -22 -8 -9 -38 9 -44 25 -5 17 23 15 38 -3z
m-53 -8 c-8 -22 48 -50 73 -37 17 9 20 7 26 -14 9 -37 1 -70 -19 -74 -22 -4
-87 62 -87 89 0 10 -5 19 -11 19 -8 0 -8 5 1 15 15 19 24 19 17 2z m-22 -51
c15 -22 14 -25 -7 -48 l-23 -24 -33 37 -33 38 33 10 c47 13 46 13 63 -13z m60
-107 c24 -47 25 -52 10 -69 -14 -15 -14 -18 0 -30 8 -7 15 -22 15 -34 0 -22
-30 25 -70 111 -39 81 5 102 45 22z m-63 -32 c16 -30 19 -65 7 -73 -8 -4 -9
-3 -5 4 4 8 0 12 -11 12 -11 0 -24 5 -31 12 -9 9 -12 9 -12 0 0 -7 11 -24 25
-38 28 -28 34 -74 10 -74 -8 0 -15 -9 -15 -20 0 -23 -13 -26 -29 -6 -14 17 -4
69 12 59 7 -4 8 5 3 28 -9 40 -14 68 -22 129 l-6 45 32 -30 c17 -16 36 -38 42
-48z m-330 6 c-84 -107 -74 -291 28 -538 39 -94 80 -223 80 -251 0 -9 -16 -4
-44 14 -40 24 -43 28 -28 40 9 7 25 11 34 9 15 -4 15 -1 -2 43 -10 26 -37 75
-59 110 -23 35 -49 87 -58 117 -10 31 -20 48 -24 41 -11 -18 -24 97 -24 217 1
61 -2 97 -6 80 -18 -81 -7 -258 31 -505 4 -30 6 -57 4 -59 -13 -14 -24 31 -43
181 -27 212 -27 336 -2 418 20 64 12 74 -22 28 -42 -56 -43 -347 -3 -535 l13
-63 -28 21 c-22 15 -29 29 -29 52 0 18 -3 42 -6 54 l-6 21 -33 -20 c-27 -15
-38 -17 -55 -8 -16 9 -19 15 -11 24 6 7 18 67 27 132 8 66 28 157 44 204 15
47 26 87 25 89 -11 10 -45 -72 -75 -181 -24 -84 -36 -114 -38 -95 -3 25 10
126 24 187 5 24 5 24 -11 5 -27 -34 -47 -117 -52 -224 -5 -91 -7 -102 -19 -86
-8 10 -14 37 -14 59 0 45 -15 39 -23 -9 -3 -16 -3 8 0 55 7 112 34 195 78 248
48 55 153 114 209 116 27 2 54 10 71 24 15 12 39 22 52 22 l24 0 -29 -37z m39
-42 c-12 -22 -26 -64 -33 -93 -11 -53 -12 -53 -21 -22 -12 41 7 110 40 140 35
32 39 25 14 -25z m204 4 c6 -36 3 -49 -13 -70 -32 -41 -37 -80 -14 -125 11
-22 16 -43 11 -45 -9 -6 -166 11 -192 20 -25 10 -31 49 -17 103 15 54 30 74
77 104 30 18 115 54 135 57 4 1 10 -19 13 -44z m270 -43 c-9 -9 -54 12 -58 28
-4 17 -2 17 28 -3 19 -12 32 -23 30 -25z m145 26 c-1 -20 -36 -58 -54 -58 -9
0 -16 -6 -17 -12 -1 -7 -4 -2 -8 12 -7 21 -2 28 28 47 41 26 51 28 51 11z
m-960 -13 c0 -3 -33 -26 -72 -52 -40 -26 -136 -108 -213 -182 -77 -75 -117
-111 -90 -81 95 103 110 125 49 68 -80 -74 -144 -114 -223 -138 -80 -25 -114
-25 -43 0 72 26 98 46 243 186 127 124 171 153 269 185 57 19 80 23 80 14z
m565 -47 c-15 -52 -17 -69 -7 -98 9 -24 8 -30 -3 -30 -17 0 -35 31 -35 59 0
26 31 91 43 91 5 0 6 -10 2 -22z m295 -7 c-1 -9 -17 -26 -37 -39 l-36 -23 -23
22 c-18 17 -21 26 -14 40 17 31 110 31 110 0z m-160 -42 c9 -16 8 -25 -6 -40
-17 -19 -45 -25 -57 -13 -5 5 42 74 50 74 1 0 7 -9 13 -21z m-2940 -41 c30
-14 80 -44 110 -67 30 -22 66 -41 80 -41 14 -1 35 -6 47 -13 18 -10 5 -12 -80
-13 -83 0 -111 -4 -152 -23 -81 -36 -168 -109 -197 -163 l-26 -49 51 52 c143
146 326 202 450 139 l49 -25 -66 -16 c-36 -9 -99 -33 -139 -52 -70 -34 -89
-46 -179 -115 -42 -33 -42 -33 7 13 62 59 149 119 229 156 50 24 54 28 26 23
-75 -13 -176 -66 -258 -132 -52 -42 -141 -159 -189 -245 -48 -88 -30 -29 25
76 24 49 68 114 96 145 l51 57 -42 -33 c-165 -129 -243 -330 -243 -627 1 -138
11 -195 46 -247 40 -62 92 -63 164 -3 44 37 67 40 35 5 -21 -23 -11 -25 25 -5
38 22 59 18 25 -5 -34 -23 -146 -60 -180 -60 -56 0 -139 122 -164 238 -25 120
-9 283 44 450 15 46 24 86 21 90 -9 8 -62 -114 -82 -189 -19 -67 -26 -283 -12
-384 l6 -50 -15 45 c-24 71 -29 345 -9 468 18 107 77 311 102 352 l15 25 -23
-25 c-13 -14 -31 -37 -41 -50 -12 -18 -15 -19 -8 -4 19 41 91 128 138 166 59
49 113 77 178 93 l50 13 -56 1 c-74 1 -147 -35 -219 -110 -63 -65 -121 -156
-125 -197 -2 -15 -19 -67 -39 -117 l-37 -90 5 59 c5 55 4 58 -12 43 -25 -26
-29 -192 -6 -277 9 -36 20 -89 24 -118 l6 -52 -39 37 c-88 86 -96 155 -43 367
49 193 108 301 221 404 30 28 83 65 117 82 54 27 71 31 123 28 37 -2 81 -14
115 -30z m-260 17 c0 -3 -42 -32 -92 -65 -51 -32 -100 -65 -109 -73 -13 -12
-19 -12 -34 -1 -17 13 -16 15 9 49 29 37 66 60 131 81 41 13 95 18 95 9z
m2381 -63 c-6 -11 -16 -60 -22 -110 -8 -57 -17 -93 -26 -96 -10 -4 -13 8 -13
47 l-1 52 -26 -30 c-21 -25 -19 -18 12 40 45 83 75 128 82 121 2 -2 0 -13 -6
-24z m736 -84 c-3 -8 -6 -5 -6 6 -1 11 2 17 5 13 3 -3 4 -12 1 -19z m-157 8
c0 -9 -32 -36 -42 -36 -6 0 0 9 13 20 25 21 29 23 29 16z m-1000 -58 c0 -51
-5 -47 -13 10 -3 24 -1 40 4 36 5 -3 9 -24 9 -46z m1167 -20 c-2 -13 -4 -5 -4
17 -1 22 1 32 4 23 2 -10 2 -28 0 -40z m-1257 -2 c0 -25 -5 -48 -11 -52 -8 -4
-8 -9 0 -17 6 -6 11 -21 11 -33 0 -18 -7 -23 -46 -29 -26 -3 -53 -9 -60 -12
-11 -4 -14 9 -14 58 0 68 -18 67 -21 -1 -1 -25 -3 -28 -6 -12 -7 36 -28 20
-31 -24 -5 -64 -15 -73 -23 -19 -7 49 -6 51 35 88 36 33 138 95 159 97 4 0 7
-20 7 -44z m-1175 -41 c46 -13 151 -33 233 -45 350 -48 494 -130 597 -340 45
-93 63 -104 25 -15 -27 63 -26 75 14 122 48 55 131 110 212 140 59 21 96 26
254 34 102 5 226 17 275 26 90 15 91 15 135 -7 66 -34 362 -238 353 -243 -14
-9 -456 -75 -678 -102 -115 -14 -250 -37 -298 -50 -82 -22 -91 -23 -135 -10
-62 19 -88 19 -123 -2 -28 -17 -29 -17 -57 10 -33 32 -67 34 -134 10 -52 -18
-52 -18 -493 113 -99 30 -267 77 -373 106 l-192 52 22 24 c57 61 246 200 275
202 2 0 41 -11 88 -25z m2225 12 c0 -2 -17 -19 -37 -38 l-38 -34 34 38 c33 34
41 42 41 34z m206 -266 c-17 -89 -48 -176 -76 -211 -15 -18 -12 -7 10 43 43
95 59 173 68 317 l7 125 3 -99 c2 -57 -3 -131 -12 -175z m-389 227 c-3 -7 -5
-2 -5 12 0 14 2 19 5 13 2 -7 2 -19 0 -25z m-767 -18 c0 -16 -4 -30 -10 -30
-5 0 -10 14 -10 30 0 17 5 30 10 30 6 0 10 -13 10 -30z m27 -17 c-3 -10 -5 -2
-5 17 0 19 2 27 5 18 2 -10 2 -26 0 -35z m407 28 c6 -9 -133 -37 -224 -45 -64
-5 -59 -3 75 28 113 27 141 30 149 17z m-912 -23 c-7 -7 -12 -8 -12 -2 0 14
12 26 19 19 2 -3 -1 -11 -7 -17z m148 -76 c0 -12 -16 -39 -36 -60 l-36 -37 6
39 c6 46 47 111 58 93 4 -7 8 -22 8 -35z m-1980 -7 c-33 -48 -61 -68 -88 -63
-13 2 -8 9 18 25 19 12 48 35 64 52 41 43 42 39 6 -14z m3257 -52 c-2 -16 -4
-5 -4 22 0 28 2 40 4 28 2 -13 2 -35 0 -50z m-2631 15 c-26 -37 -19 -55 52
-123 67 -64 67 -65 37 -66 -26 -1 -24 -2 12 -9 81 -16 157 -90 139 -135 -9
-24 -30 -18 -103 30 -53 35 -77 45 -108 44 l-40 -1 30 -13 c17 -7 39 -23 49
-34 11 -12 27 -21 36 -21 9 0 29 -14 44 -31 24 -26 33 -30 60 -25 64 13 253
19 260 8 7 -12 -18 -18 -114 -27 -36 -4 -84 -11 -108 -16 -35 -8 -49 -6 -81
11 -22 11 -65 21 -98 23 -39 2 -71 10 -96 26 -20 12 -37 25 -37 28 0 3 12 -2
28 -11 l27 -17 -23 20 c-13 11 -29 18 -36 15 -17 -6 -36 45 -36 93 0 39 75
221 99 241 22 18 24 15 7 -10z m-48 -6 c-1 -5 -25 -52 -53 -105 l-49 -97 0
-108 1 -107 -14 75 c-7 41 -11 89 -8 106 3 17 2 42 -3 54 -8 22 -9 22 -16 4
-16 -40 -24 -184 -15 -251 15 -107 36 -158 89 -216 70 -77 138 -111 221 -112
57 0 70 4 103 28 62 48 98 119 123 242 l7 40 4 -44 c4 -56 -29 -166 -65 -213
-50 -66 -80 -82 -156 -86 -63 -4 -75 -1 -142 32 -89 44 -155 113 -182 189 -15
42 -18 83 -18 223 0 170 0 171 30 230 22 43 43 68 79 92 47 31 71 40 64 24z
m292 -118 c74 -19 216 -59 315 -89 99 -29 241 -70 315 -91 74 -21 127 -40 118
-42 -15 -3 -896 244 -907 254 -11 10 35 1 159 -32z m2341 -70 c0 -5 -69 -19
-153 -31 -84 -11 -325 -46 -536 -77 -210 -31 -392 -56 -404 -56 -57 0 9 14
213 45 264 40 734 111 802 121 47 6 48 7 30 27 l-18 21 33 -21 c19 -11 34 -24
33 -29z m-2091 -148 c0 -2 -9 -6 -20 -9 -11 -3 -18 -1 -14 4 5 9 34 13 34 5z
m632 -21 c111 -51 223 -52 275 -3 13 12 26 18 30 14 5 -4 -7 -21 -26 -37 -37
-31 -98 -45 -159 -36 -42 5 -192 67 -192 79 0 13 14 9 72 -17z m-584 -2 c2 -9
-7 -13 -28 -13 -28 0 -31 2 -20 15 15 18 41 16 48 -2z m1816 -7 c-3 -8 -12
-12 -20 -9 -21 8 -17 23 6 23 13 0 18 -5 14 -14z m71 -15 c36 -14 45 -21 34
-26 -27 -10 -99 13 -93 30 4 8 7 15 8 15 0 0 24 -9 51 -19z m-2318 -21 c28 -5
65 -16 82 -25 20 -10 45 -14 73 -10 l43 5 -44 -14 c-41 -14 -47 -13 -82 5 -21
10 -52 19 -69 19 -17 0 -44 7 -60 15 -32 17 -41 32 -12 20 9 -4 40 -10 69 -15z
m246 -27 c-7 -2 -19 -2 -25 0 -7 3 -2 5 12 5 14 0 19 -2 13 -5z m-231 -136
c-21 -46 -87 -127 -104 -127 -6 0 8 20 31 45 22 24 51 65 63 90 28 57 36 51
10 -8z m1402 -132 c4 -21 3 -26 -3 -15 -8 11 -12 9 -20 -12 -15 -39 -103 -61
-156 -38 -15 6 -8 9 30 10 70 3 98 12 110 38 5 12 12 22 16 22 3 0 4 28 3 63
l-3 62 9 -50 c5 -27 11 -63 14 -80z m-54 100 c0 -16 -9 -19 -35 -9 -13 5 -14
8 -3 15 20 13 38 11 38 -6z m-918 -40 c69 -14 178 -31 242 -38 64 -8 119 -17
123 -20 31 -32 -470 48 -525 84 -14 8 -12 9 8 5 14 -3 82 -17 152 -31z m-309
-15 c-24 -38 -81 -80 -107 -80 -14 0 -7 7 20 19 23 10 54 35 70 55 35 44 43
46 17 6z m1165 13 c-9 -10 -13 -23 -11 -30 2 -6 0 -14 -5 -17 -6 -3 -12 10
-14 29 -4 32 -2 35 21 35 22 0 23 -1 9 -17z m382 -7 c0 -9 -28 -21 -77 -35
-113 -30 -143 -35 -143 -23 0 5 42 20 93 32 50 13 99 26 107 31 20 11 20 11
20 -5z m-432 -34 c3 -32 4 -32 60 -32 44 -1 53 -3 39 -11 -9 -5 -40 -9 -69 -7
-48 3 -52 5 -60 33 -4 17 -6 36 -3 43 9 24 30 7 33 -26z m-68 -38 c0 -27 -4
-43 -10 -39 -5 3 -10 24 -10 46 0 21 5 39 10 39 6 0 10 -21 10 -46z m-40 26
c0 -5 -12 -10 -27 -9 -25 0 -26 1 -8 9 27 12 35 12 35 0z m297 -162 c-3 -7 -5
-2 -5 12 0 14 2 19 5 13 2 -7 2 -19 0 -25z m10 -55 c-3 -10 -5 -4 -5 12 0 17
2 24 5 18 2 -7 2 -21 0 -30z"/>
<path d="M2079 4613 c-13 -16 -12 -17 4 -4 9 7 17 15 17 17 0 8 -8 3 -21 -13z"/>
<path d="M2538 4183 c18 -2 45 -2 60 0 15 2 0 4 -33 4 -33 0 -45 -2 -27 -4z"/>
<path d="M2418 4173 c12 -2 30 -2 40 0 9 3 -1 5 -23 4 -22 0 -30 -2 -17 -4z"/>
<path d="M2708 4173 c12 -2 30 -2 40 0 9 3 -1 5 -23 4 -22 0 -30 -2 -17 -4z"/>
<path d="M2338 4163 c12 -2 30 -2 40 0 9 3 -1 5 -23 4 -22 0 -30 -2 -17 -4z"/>
<path d="M2273 4153 c9 -2 23 -2 30 0 6 3 -1 5 -18 5 -16 0 -22 -2 -12 -5z"/>
<path d="M2492 4055 c3 -3 29 -9 57 -14 29 -5 49 -5 44 -1 -9 9 -109 23 -101
15z"/>
<path d="M2614 4043 c7 -7 87 -5 95 3 2 2 -20 4 -49 4 -29 0 -50 -3 -46 -7z"/>
<path d="M2029 3793 c-6 -7 -8 -13 -3 -13 5 0 4 -4 -3 -8 -8 -5 -9 -13 -3 -22
8 -13 10 -13 10 -1 0 8 9 24 20 36 16 17 17 22 5 22 -8 0 -20 -6 -26 -14z"/>
<path d="M2065 3360 c21 -22 41 -40 44 -40 3 0 -13 18 -34 40 -21 22 -41 40
-44 40 -3 0 13 -18 34 -40z"/>
<path d="M2281 3634 c0 -11 3 -14 6 -6 3 7 2 16 -1 19 -3 4 -6 -2 -5 -13z"/>
<path d="M2286 3497 c-15 -19 -26 -40 -26 -48 0 -11 -2 -11 -10 1 -6 8 -8 29
-5 45 5 29 5 29 -6 5 -20 -47 7 -143 63 -223 33 -46 31 -23 -2 30 -33 54 -53
132 -30 118 10 -6 12 -4 7 9 -4 10 3 33 18 56 31 49 25 52 -9 7z"/>
<path d="M2331 3224 c0 -11 3 -14 6 -6 3 7 2 16 -1 19 -3 4 -6 -2 -5 -13z"/>
<path d="M2869 3484 c12 -17 28 -55 36 -85 10 -41 13 -47 14 -24 1 36 -29 104
-54 125 -14 11 -13 8 4 -16z"/>
<path d="M2637 3435 c3 -16 12 -43 19 -60 l14 -30 -5 29 c-4 16 -12 43 -20 60
l-14 31 6 -30z"/>
<path d="M2611 3434 c0 -11 3 -14 6 -6 3 7 2 16 -1 19 -3 4 -6 -2 -5 -13z"/>
<path d="M2578 3370 c-5 -29 -2 -39 20 -60 14 -14 20 -18 14 -9 -7 9 -16 36
-20 60 l-8 44 -6 -35z"/>
<path d="M2621 3384 c0 -11 3 -14 6 -6 3 7 2 16 -1 19 -3 4 -6 -2 -5 -13z"/>
<path d="M2434 3337 c4 -15 22 -56 42 -90 45 -78 33 -34 -13 53 -20 36 -32 52
-29 37z"/>
<path d="M2530 3277 c0 -8 57 -117 97 -186 14 -24 30 -58 34 -75 8 -28 8 -27
4 8 -2 23 -19 62 -39 90 -19 28 -48 78 -65 111 -16 33 -30 57 -31 52z"/>
<path d="M2696 3195 c11 -36 15 -189 5 -240 -12 -63 -6 -70 11 -14 19 64 16
196 -5 239 -10 19 -14 26 -11 15z"/>
<path d="M2676 3147 c3 -10 9 -15 12 -12 3 3 0 11 -7 18 -10 9 -11 8 -5 -6z"/>
<path d="M2672 2960 c0 -14 2 -19 5 -12 2 6 2 18 0 25 -3 6 -5 1 -5 -13z"/>
<path d="M2111 3088 c-2 -12 57 -209 64 -216 4 -4 3 7 -1 23 -12 47 -62 201
-63 193z"/>
<path d="M2051 2704 c0 -11 3 -14 6 -6 3 7 2 16 -1 19 -3 4 -6 -2 -5 -13z"/>
<path d="M2242 2425 c0 -16 2 -22 5 -12 2 9 2 23 0 30 -3 6 -5 -1 -5 -18z"/>
<path d="M3101 2814 c0 -11 3 -14 6 -6 3 7 2 16 -1 19 -3 4 -6 -2 -5 -13z"/>
<path d="M3112 2760 c0 -14 2 -19 5 -12 2 6 2 18 0 25 -3 6 -5 1 -5 -13z"/>
<path d="M3122 2700 c0 -14 2 -19 5 -12 2 6 2 18 0 25 -3 6 -5 1 -5 -13z"/>
<path d="M3132 2630 c0 -19 2 -27 5 -17 2 9 2 25 0 35 -3 9 -5 1 -5 -18z"/>
<path d="M3143 2525 c0 -27 2 -38 4 -22 2 15 2 37 0 50 -2 12 -4 0 -4 -28z"/>
<path d="M1603 3143 c-29 -50 -85 -188 -97 -238 -11 -44 -3 -30 42 75 22 52
52 121 66 153 14 31 24 57 21 57 -2 0 -17 -21 -32 -47z"/>
<path d="M1722 2980 c0 -14 2 -19 5 -12 2 6 2 18 0 25 -3 6 -5 1 -5 -13z"/>
<path d="M1346 2815 c-11 -8 -15 -15 -9 -15 6 0 16 7 23 15 16 19 11 19 -14 0z"/>
<path d="M1270 2566 c-86 -27 -165 -60 -173 -74 -4 -5 21 -9 56 -9 58 -1 59 0
17 6 -45 6 -44 6 45 23 163 31 162 31 210 7 55 -27 144 -106 196 -172 l39 -49
0 45 c0 53 -32 160 -60 202 -24 36 -25 27 -5 -39 27 -89 21 -94 -41 -37 -75
69 -156 121 -185 120 -13 0 -58 -11 -99 -23z"/>
<path d="M2751 2654 c0 -11 3 -14 6 -6 3 7 2 16 -1 19 -3 4 -6 -2 -5 -13z"/>
<path d="M2762 2560 c0 -14 2 -19 5 -12 2 6 2 18 0 25 -3 6 -5 1 -5 -13z"/>
<path d="M2771 2444 c0 -11 3 -14 6 -6 3 7 2 16 -1 19 -3 4 -6 -2 -5 -13z"/>
<path d="M2781 2344 c0 -11 3 -14 6 -6 3 7 2 16 -1 19 -3 4 -6 -2 -5 -13z"/>
<path d="M2792 2235 c0 -16 2 -22 5 -12 2 9 2 23 0 30 -3 6 -5 -1 -5 -18z"/>
<path d="M2802 2090 c0 -19 2 -27 5 -17 2 9 2 25 0 35 -3 9 -5 1 -5 -18z"/>
<path d="M2683 2585 c0 -22 2 -30 4 -17 2 12 2 30 0 40 -3 9 -5 -1 -4 -23z"/>
<path d="M2693 2495 c0 -22 2 -30 4 -17 2 12 2 30 0 40 -3 9 -5 -1 -4 -23z"/>
<path d="M2703 2405 c0 -27 2 -38 4 -22 2 15 2 37 0 50 -2 12 -4 0 -4 -28z"/>
<path d="M3956 2405 c-3 -9 -6 -22 -5 -28 0 -7 5 -1 10 12 5 13 8 26 5 28 -2
2 -6 -3 -10 -12z"/>
<path d="M3651 2094 c0 -11 3 -14 6 -6 3 7 2 16 -1 19 -3 4 -6 -2 -5 -13z"/>
<path d="M1056 1998 c-28 -37 -61 -116 -53 -124 3 -4 24 30 46 75 23 45 39 81
37 81 -3 0 -16 -15 -30 -32z"/>
<path d="M3072 2020 c0 -19 2 -27 5 -17 2 9 2 25 0 35 -3 9 -5 1 -5 -18z"/>
<path d="M3060 1970 c0 -5 5 -10 11 -10 5 0 7 5 4 10 -3 6 -8 10 -11 10 -2 0
-4 -4 -4 -10z"/>
<path d="M1891 1906 c3 -3 87 -15 188 -26 100 -12 217 -30 259 -41 91 -23 197
-74 272 -130 l55 -41 -35 36 c-75 80 -239 155 -380 174 -41 6 -120 14 -175 17
-55 3 -120 9 -145 12 -25 3 -42 3 -39 -1z"/>
<path d="M2230 1814 c139 -35 320 -114 391 -169 25 -20 24 -18 -6 10 -94 86
-247 154 -408 180 -133 21 -129 18 23 -21z"/>
<path d="M1898 1833 c7 -3 16 -2 19 1 4 3 -2 6 -13 5 -11 0 -14 -3 -6 -6z"/>
<path d="M1938 1823 c6 -2 18 -2 25 0 6 3 1 5 -13 5 -14 0 -19 -2 -12 -5z"/>
<path d="M1581 1816 c2 -3 117 -36 254 -74 138 -38 352 -99 478 -136 125 -36
242 -66 260 -66 58 1 -294 108 -641 196 -316 80 -361 90 -351 80z"/>
<path d="M1998 1813 c6 -2 18 -2 25 0 6 3 1 5 -13 5 -14 0 -19 -2 -12 -5z"/>
<path d="M1920 1784 c52 -13 161 -39 241 -58 81 -19 213 -60 295 -90 81 -30
150 -54 151 -52 8 8 -197 106 -272 131 -65 22 -466 97 -500 94 -5 0 33 -12 85
-25z"/>
<path d="M2145 1784 c153 -33 266 -69 357 -115 43 -22 78 -37 78 -35 0 3 -28
21 -62 40 -81 45 -223 92 -351 117 -141 26 -155 22 -22 -7z"/>
<path d="M3185 1799 c-72 -14 -204 -81 -245 -125 l-35 -37 40 31 c48 38 150
84 225 103 40 10 121 14 295 13 132 -1 213 2 180 5 -46 5 -53 8 -30 11 17 3
-62 6 -175 7 -113 1 -227 -3 -255 -8z"/>
<path d="M3202 1735 c-81 -15 -218 -76 -267 -120 l-30 -27 30 20 c62 40 138
73 228 98 80 23 120 27 312 33 l220 8 -210 0 c-135 1 -236 -4 -283 -12z"/>
<path d="M3221 1709 c-52 -10 -144 -40 -139 -44 2 -2 35 5 73 16 41 12 122 24
195 28 l125 8 -105 0 c-58 1 -125 -3 -149 -8z"/>
<path d="M3688 1703 c12 -2 30 -2 40 0 9 3 -1 5 -23 4 -22 0 -30 -2 -17 -4z"/>
<path d="M3256 1689 c-64 -9 -179 -40 -173 -46 2 -2 36 3 76 12 39 8 158 19
264 25 105 6 201 12 212 14 47 8 -325 3 -379 -5z"/>
<path d="M3370 1659 c-74 -4 -168 -14 -207 -23 -68 -14 -197 -56 -191 -61 2
-2 41 5 88 16 47 10 171 28 275 39 105 11 219 24 255 29 l65 8 -75 0 c-41 0
-136 -3 -210 -8z"/>
<path d="M3047 1639 c7 -7 15 -10 18 -7 3 3 -2 9 -12 12 -14 6 -15 5 -6 -5z"/>
<path d="M2996 1625 c-11 -8 -15 -15 -9 -15 7 0 15 5 18 10 4 6 11 8 16 5 5
-4 9 -1 9 4 0 15 -11 13 -34 -4z"/>
<path d="M3678 1633 c6 -2 18 -2 25 0 6 3 1 5 -13 5 -14 0 -19 -2 -12 -5z"/>
<path d="M3608 1623 c6 -2 18 -2 25 0 6 3 1 5 -13 5 -14 0 -19 -2 -12 -5z"/>
<path d="M3533 1613 c9 -2 23 -2 30 0 6 3 -1 5 -18 5 -16 0 -22 -2 -12 -5z"/>
<path d="M3448 1603 c6 -2 18 -2 25 0 6 3 1 5 -13 5 -14 0 -19 -2 -12 -5z"/>
<path d="M3368 1593 c7 -3 16 -2 19 1 4 3 -2 6 -13 5 -11 0 -14 -3 -6 -6z"/>
<path d="M3298 1583 c7 -3 16 -2 19 1 4 3 -2 6 -13 5 -11 0 -14 -3 -6 -6z"/>
<path d="M3058 1543 c7 -3 16 -2 19 1 4 3 -2 6 -13 5 -11 0 -14 -3 -6 -6z"/>
<path d="M3008 1533 c7 -3 16 -2 19 1 4 3 -2 6 -13 5 -11 0 -14 -3 -6 -6z"/>
<path d="M2861 1864 c0 -11 3 -14 6 -6 3 7 2 16 -1 19 -3 4 -6 -2 -5 -13z"/>
<path d="M3130 4820 c8 -5 20 -10 25 -10 6 0 3 5 -5 10 -8 5 -19 10 -25 10 -5
0 -3 -5 5 -10z"/>
<path d="M1558 4744 c-38 -20 -36 -28 2 -9 17 9 30 18 30 20 0 7 -1 6 -32 -11z"/>
<path d="M3270 4756 c0 -3 14 -12 30 -21 17 -9 30 -13 30 -11 0 3 -13 12 -30
21 -16 9 -30 13 -30 11z"/>
<path d="M3370 4697 c0 -2 26 -21 58 -41 31 -20 45 -27 30 -14 -30 26 -88 62
-88 55z"/>
<path d="M1444 4674 c-18 -14 -18 -15 4 -4 12 6 22 13 22 15 0 8 -5 6 -26 -11z"/>
<path d="M3300 4686 c0 -2 8 -10 18 -17 15 -13 16 -12 3 4 -13 16 -21 21 -21
13z"/>
<path d="M3355 4640 c10 -11 20 -20 23 -20 3 0 -3 9 -13 20 -10 11 -20 20 -23
20 -3 0 3 -9 13 -20z"/>
<path d="M1279 4633 c-13 -16 -12 -17 4 -4 9 7 17 15 17 17 0 8 -8 3 -21 -13z"/>
<path d="M1305 4579 c-105 -80 -242 -214 -319 -314 -72 -92 -109 -145 -103
-145 3 0 33 39 68 88 84 116 232 267 346 354 82 62 100 78 91 78 -2 0 -39 -28
-83 -61z"/>
<path d="M3390 4616 c0 -2 8 -10 18 -17 15 -13 16 -12 3 4 -13 16 -21 21 -21
13z"/>
<path d="M3490 4617 c0 -3 38 -32 84 -66 171 -124 363 -357 500 -606 36 -66
66 -116 66 -111 0 17 -101 199 -156 282 -79 120 -169 227 -275 329 -81 77
-219 186 -219 172z"/>
<path d="M3930 4596 c0 -2 8 -10 18 -17 15 -13 16 -12 3 4 -13 16 -21 21 -21
13z"/>
<path d="M1199 4573 c-13 -16 -12 -17 4 -4 9 7 17 15 17 17 0 8 -8 3 -21 -13z"/>
<path d="M3340 4580 c0 -5 7 -10 16 -10 8 0 12 5 9 10 -3 6 -10 10 -16 10 -5
0 -9 -4 -9 -10z"/>
<path d="M3820 4586 c0 -2 8 -10 18 -17 15 -13 16 -12 3 4 -13 16 -21 21 -21
13z"/>
<path d="M3440 4577 c0 -2 15 -16 33 -33 l32 -29 -29 33 c-28 30 -36 37 -36
29z"/>
<path d="M2788 4563 c7 -3 16 -2 19 1 4 3 -2 6 -13 5 -11 0 -14 -3 -6 -6z"/>
<path d="M2848 4553 c7 -3 16 -2 19 1 4 3 -2 6 -13 5 -11 0 -14 -3 -6 -6z"/>
<path d="M3875 4540 c10 -11 20 -20 23 -20 3 0 -3 9 -13 20 -10 11 -20 20 -23
20 -3 0 3 -9 13 -20z"/>
<path d="M2898 4543 c7 -3 16 -2 19 1 4 3 -2 6 -13 5 -11 0 -14 -3 -6 -6z"/>
<path d="M4065 4470 c44 -44 82 -80 85 -80 2 0 -31 36 -75 80 -44 44 -82 80
-85 80 -2 0 31 -36 75 -80z"/>
<path d="M1124 4508 l-29 -33 33 29 c17 17 32 31 32 33 0 8 -8 1 -36 -29z"/>
<path d="M1329 4513 c-13 -16 -12 -17 4 -4 9 7 17 15 17 17 0 8 -8 3 -21 -13z"/>
<path d="M3595 4430 c49 -49 92 -90 95 -90 2 0 -36 41 -85 90 -49 50 -92 90
-95 90 -2 0 36 -40 85 -90z"/>
<path d="M3800 4435 c47 -47 87 -85 90 -85 2 0 -33 38 -80 85 -47 47 -87 85
-90 85 -2 0 33 -38 80 -85z"/>
<path d="M3330 4500 c0 -5 7 -10 15 -10 8 0 15 5 15 10 0 6 -7 10 -15 10 -8 0
-15 -4 -15 -10z"/>
<path d="M3980 4445 c30 -30 57 -55 59 -55 3 0 -19 25 -49 55 -30 30 -57 55
-59 55 -3 0 19 -25 49 -55z"/>
<path d="M1279 4473 c-13 -16 -12 -17 4 -4 16 13 21 21 13 21 -2 0 -10 -8 -17
-17z"/>
<path d="M1149 4363 c-13 -16 -12 -17 4 -4 9 7 17 15 17 17 0 8 -8 3 -21 -13z"/>
<path d="M944 4328 l-29 -33 33 29 c17 17 32 31 32 33 0 8 -8 1 -36 -29z"/>
<path d="M4100 4357 c0 -2 15 -16 33 -33 l32 -29 -29 33 c-28 30 -36 37 -36
29z"/>
<path d="M4185 4340 c10 -11 20 -20 23 -20 3 0 -3 9 -13 20 -10 11 -20 20 -23
20 -3 0 3 -9 13 -20z"/>
<path d="M3370 4336 c0 -2 8 -10 18 -17 15 -13 16 -12 3 4 -13 16 -21 21 -21
13z"/>
<path d="M4100 4315 c13 -14 26 -25 28 -25 3 0 -5 11 -18 25 -13 14 -26 25
-28 25 -3 0 5 -11 18 -25z"/>
<path d="M3710 4305 c13 -14 26 -25 28 -25 3 0 -5 11 -18 25 -13 14 -26 25
-28 25 -3 0 5 -11 18 -25z"/>
<path d="M3910 4316 c0 -2 8 -10 18 -17 15 -13 16 -12 3 4 -13 16 -21 21 -21
13z"/>
<path d="M3410 4306 c0 -2 8 -10 18 -17 15 -13 16 -12 3 4 -13 16 -21 21 -21
13z"/>
<path d="M3470 4296 c0 -2 8 -10 18 -17 15 -13 16 -12 3 4 -13 16 -21 21 -21
13z"/>
<path d="M1029 4253 l-34 -38 38 34 c34 33 42 41 34 41 -2 0 -19 -17 -38 -37z"/>
<path d="M884 4258 l-19 -23 23 19 c21 18 27 26 19 26 -2 0 -12 -10 -23 -22z"/>
<path d="M1269 4253 l-24 -28 28 24 c25 23 32 31 24 31 -2 0 -14 -12 -28 -27z"/>
<path d="M4185 4260 c10 -11 20 -20 23 -20 3 0 -3 9 -13 20 -10 11 -20 20 -23
20 -3 0 3 -9 13 -20z"/>
<path d="M1375 4208 l-60 -63 63 60 c34 33 62 61 62 62 0 8 -10 -1 -65 -59z"/>
<path d="M3480 4245 c13 -14 26 -25 28 -25 3 0 -5 11 -18 25 -13 14 -26 25
-28 25 -3 0 5 -11 18 -25z"/>
<path d="M3530 4245 c13 -14 26 -25 28 -25 3 0 -5 11 -18 25 -13 14 -26 25
-28 25 -3 0 5 -11 18 -25z"/>
<path d="M4140 4266 c0 -2 8 -10 18 -17 15 -13 16 -12 3 4 -13 16 -21 21 -21
13z"/>
<path d="M3750 4256 c0 -2 8 -10 18 -17 15 -13 16 -12 3 4 -13 16 -21 21 -21
13z"/>
<path d="M1444 4218 l-19 -23 23 19 c21 18 27 26 19 26 -2 0 -12 -10 -23 -22z"/>
<path d="M1660 4225 c-7 -9 -8 -15 -2 -15 5 0 12 7 16 15 3 8 4 15 2 15 -2 0
-9 -7 -16 -15z"/>
<path d="M1599 4221 c9 -6 10 -11 2 -15 -6 -4 -11 -11 -11 -17 0 -13 24 -11
38 3 9 9 7 14 -6 24 -9 8 -21 13 -27 14 -5 0 -4 -4 4 -9z"/>
<path d="M4210 4226 c0 -2 8 -10 18 -17 15 -13 16 -12 3 4 -13 16 -21 21 -21
13z"/>
<path d="M3780 4216 c0 -2 8 -10 18 -17 15 -13 16 -12 3 4 -13 16 -21 21 -21
13z"/>
<path d="M1264 4188 l-19 -23 23 19 c21 18 27 26 19 26 -2 0 -12 -10 -23 -22z"/>
<path d="M3585 4150 c33 -33 62 -60 64 -60 3 0 -21 27 -54 60 -33 33 -62 60
-64 60 -3 0 21 -27 54 -60z"/>
<path d="M1174 4168 l-29 -33 33 29 c30 28 37 36 29 36 -2 0 -16 -15 -33 -32z"/>
<path d="M1345 4128 l-60 -63 63 60 c34 33 62 61 62 62 0 8 -10 -1 -65 -59z"/>
<path d="M3655 4130 c33 -33 62 -60 64 -60 3 0 -21 27 -54 60 -33 33 -62 60
-64 60 -3 0 21 -27 54 -60z"/>
<path d="M3810 4176 c0 -2 8 -10 18 -17 15 -13 16 -12 3 4 -13 16 -21 21 -21
13z"/>
<path d="M799 4143 c-13 -16 -12 -17 4 -4 9 7 17 15 17 17 0 8 -8 3 -21 -13z"/>
<path d="M4230 4146 c0 -2 8 -10 18 -17 15 -13 16 -12 3 4 -13 16 -21 21 -21
13z"/>
<path d="M3865 4103 c15 -24 30 -43 32 -43 7 0 -31 61 -46 73 -8 7 -2 -7 14
-30z"/>
<path d="M1369 4113 c-13 -16 -12 -17 4 -4 9 7 17 15 17 17 0 8 -8 3 -21 -13z"/>
<path d="M1549 4083 l-24 -28 28 24 c25 23 32 31 24 31 -2 0 -14 -12 -28 -27z"/>
<path d="M1079 4063 l-24 -28 28 24 c25 23 32 31 24 31 -2 0 -14 -12 -28 -27z"/>
<path d="M1259 4073 c-13 -16 -12 -17 4 -4 16 13 21 21 13 21 -2 0 -10 -8 -17
-17z"/>
<path d="M3680 4045 c13 -14 26 -25 28 -25 3 0 -5 11 -18 25 -13 14 -26 25
-28 25 -3 0 5 -11 18 -25z"/>
<path d="M820 4030 c-6 -11 -8 -20 -6 -20 3 0 10 9 16 20 6 11 8 20 6 20 -3 0
-10 -9 -16 -20z"/>
<path d="M1221 4024 c-13 -14 -28 -40 -34 -58 -6 -17 -16 -35 -23 -41 -14 -11
-78 -125 -71 -125 3 0 17 20 32 45 14 25 47 72 73 103 25 31 38 51 29 43 -23
-18 -21 -5 4 30 25 36 20 38 -10 3z"/>
<path d="M1254 4028 l-19 -23 23 19 c12 11 22 21 22 23 0 8 -8 2 -26 -19z"/>
<path d="M3750 4025 c13 -14 26 -25 28 -25 3 0 -5 11 -18 25 -13 14 -26 25
-28 25 -3 0 5 -11 18 -25z"/>
<path d="M1019 3993 c-13 -16 -12 -17 4 -4 9 7 17 15 17 17 0 8 -8 3 -21 -13z"/>
<path d="M3720 3996 c0 -2 8 -10 18 -17 15 -13 16 -12 3 4 -13 16 -21 21 -21
13z"/>
<path d="M3750 3956 c0 -2 8 -10 18 -17 15 -13 16 -12 3 4 -13 16 -21 21 -21
13z"/>
<path d="M3975 3930 c9 -16 18 -30 21 -30 2 0 -2 14 -11 30 -9 17 -18 30 -21
30 -2 0 2 -13 11 -30z"/>
<path d="M1379 3913 c-13 -16 -12 -17 4 -4 9 7 17 15 17 17 0 8 -8 3 -21 -13z"/>
<path d="M3780 3916 c0 -2 8 -10 18 -17 15 -13 16 -12 3 4 -13 16 -21 21 -21
13z"/>
<path d="M1270 3890 c-8 -5 -10 -10 -5 -10 6 0 17 5 25 10 8 5 11 10 5 10 -5
0 -17 -5 -25 -10z"/>
<path d="M4015 3860 c9 -16 18 -30 21 -30 2 0 -2 14 -11 30 -9 17 -18 30 -21
30 -2 0 2 -13 11 -30z"/>
<path d="M1339 3863 c-13 -16 -12 -17 4 -4 9 7 17 15 17 17 0 8 -8 3 -21 -13z"/>
<path d="M1021 3854 c-19 -8 -32 -16 -29 -19 2 -3 22 4 44 15 46 22 35 26 -15
4z"/>
<path d="M1309 3823 c-13 -16 -12 -17 4 -4 9 7 17 15 17 17 0 8 -8 3 -21 -13z"/>
<path d="M602 3805 c-17 -37 -14 -45 4 -12 9 16 14 31 11 33 -2 2 -9 -7 -15
-21z"/>
<path d="M4082 3735 c23 -46 44 -83 46 -81 4 5 -76 166 -83 166 -3 0 14 -38
37 -85z"/>
<path d="M4141 3815 c0 -5 8 -26 19 -45 11 -19 19 -30 19 -25 0 6 -8 26 -19
45 -11 19 -19 31 -19 25z"/>
<path d="M1279 3783 c-13 -16 -12 -17 4 -4 16 13 21 21 13 21 -2 0 -10 -8 -17
-17z"/>
<path d="M1070 3770 c-6 -11 -8 -20 -6 -20 3 0 10 9 16 20 6 11 8 20 6 20 -3
0 -10 -9 -16 -20z"/>
<path d="M3891 3740 c14 -31 19 -36 19 -24 0 6 -7 19 -16 30 -14 18 -14 18 -3
-6z"/>
<path d="M1442 3731 c2 -7 7 -12 11 -12 12 1 9 15 -3 20 -7 2 -11 -2 -8 -8z"/>
<path d="M4180 3725 c0 -5 5 -17 10 -25 5 -8 10 -10 10 -5 0 6 -5 17 -10 25
-5 8 -10 11 -10 5z"/>
<path d="M3920 3675 c0 -5 5 -17 10 -25 5 -8 10 -10 10 -5 0 6 -5 17 -10 25
-5 8 -10 11 -10 5z"/>
<path d="M4205 3662 c19 -64 54 -156 54 -146 1 14 -47 155 -55 163 -4 3 -3 -5
1 -17z"/>
<path d="M4131 3640 c0 -3 11 -34 25 -70 13 -36 22 -51 19 -35 -6 28 -43 116
-44 105z"/>
<path d="M1327 3624 c-13 -13 -7 -24 14 -24 11 0 19 5 17 12 -5 14 -22 21 -31
12z"/>
<path d="M850 3610 c0 -5 5 -10 10 -10 6 0 10 5 10 10 0 6 -4 10 -10 10 -5 0
-10 -4 -10 -10z"/>
<path d="M898 3613 c7 -3 16 -2 19 1 4 3 -2 6 -13 5 -11 0 -14 -3 -6 -6z"/>
<path d="M1792 3560 c0 -14 2 -19 5 -12 2 6 2 18 0 25 -3 6 -5 1 -5 -13z"/>
<path d="M4742 3549 c2 -6 8 -10 13 -10 5 0 11 4 13 10 2 6 -4 11 -13 11 -9 0
-15 -5 -13 -11z"/>
<path d="M546 3454 c-9 -26 -16 -52 -15 -58 0 -6 9 13 20 43 10 30 17 56 15
58 -2 2 -11 -17 -20 -43z"/>
<path d="M4181 3484 c0 -11 3 -14 6 -6 3 7 2 16 -1 19 -3 4 -6 -2 -5 -13z"/>
<path d="M4262 3490 c0 -8 4 -26 8 -40 6 -20 8 -21 8 -5 0 11 -3 29 -8 40 -5
12 -8 14 -8 5z"/>
<path d="M4191 3444 c0 -11 3 -14 6 -6 3 7 2 16 -1 19 -3 4 -6 -2 -5 -13z"/>
<path d="M3585 3440 c-3 -5 1 -10 10 -10 9 0 13 5 10 10 -3 6 -8 10 -10 10 -2
0 -7 -4 -10 -10z"/>
<path d="M4202 3405 c0 -11 4 -33 8 -50 7 -27 8 -27 8 -5 0 14 -4 36 -8 50 -6
20 -8 21 -8 5z"/>
<path d="M4282 3400 c0 -14 2 -19 5 -12 2 6 2 18 0 25 -3 6 -5 1 -5 -13z"/>
<path d="M1330 3400 c0 -5 7 -10 15 -10 8 0 15 5 15 10 0 6 -7 10 -15 10 -8 0
-15 -4 -15 -10z"/>
<path d="M3300 3302 c58 -59 120 -129 138 -156 18 -28 39 -51 47 -52 12 -2 13
2 4 17 -5 11 -15 16 -21 13 -7 -5 -9 -2 -5 9 4 11 -2 22 -16 32 -12 8 -17 15
-12 15 14 0 -151 164 -200 199 -24 17 3 -15 65 -77z"/>
<path d="M4051 3374 c0 -11 3 -14 6 -6 3 7 2 16 -1 19 -3 4 -6 -2 -5 -13z"/>
<path d="M431 3364 c0 -11 3 -14 6 -6 3 7 2 16 -1 19 -3 4 -6 -2 -5 -13z"/>
<path d="M4292 3350 c0 -14 2 -19 5 -12 2 6 2 18 0 25 -3 6 -5 1 -5 -13z"/>
<path d="M511 3334 c0 -11 3 -14 6 -6 3 7 2 16 -1 19 -3 4 -6 -2 -5 -13z"/>
<path d="M780 3340 c0 -5 5 -10 10 -10 6 0 10 5 10 10 0 6 -4 10 -10 10 -5 0
-10 -4 -10 -10z"/>
<path d="M4022 3320 c0 -14 2 -19 5 -12 2 6 2 18 0 25 -3 6 -5 1 -5 -13z"/>
<path d="M4061 3324 c0 -11 3 -14 6 -6 3 7 2 16 -1 19 -3 4 -6 -2 -5 -13z"/>
<path d="M4601 3314 c0 -11 3 -14 6 -6 3 7 2 16 -1 19 -3 4 -6 -2 -5 -13z"/>
<path d="M4222 3295 c0 -16 2 -22 5 -12 2 9 2 23 0 30 -3 6 -5 -1 -5 -18z"/>
<path d="M4302 3290 c0 -19 2 -27 5 -17 2 9 2 25 0 35 -3 9 -5 1 -5 -18z"/>
<path d="M501 3294 c0 -11 3 -14 6 -6 3 7 2 16 -1 19 -3 4 -6 -2 -5 -13z"/>
<path d="M1396 3285 c-54 -22 -166 -89 -166 -100 0 -2 27 13 59 34 33 21 87
48 120 61 56 20 73 30 54 30 -5 0 -34 -11 -67 -25z"/>
<path d="M4641 3284 c0 -11 3 -14 6 -6 3 7 2 16 -1 19 -3 4 -6 -2 -5 -13z"/>
<path d="M4071 3274 c0 -11 3 -14 6 -6 3 7 2 16 -1 19 -3 4 -6 -2 -5 -13z"/>
<path d="M4611 3274 c0 -11 3 -14 6 -6 3 7 2 16 -1 19 -3 4 -6 -2 -5 -13z"/>
<path d="M4032 3260 c0 -14 2 -19 5 -12 2 6 2 18 0 25 -3 6 -5 1 -5 -13z"/>
<path d="M491 3254 c0 -11 3 -14 6 -6 3 7 2 16 -1 19 -3 4 -6 -2 -5 -13z"/>
<path d="M891 3254 c0 -11 3 -14 6 -6 3 7 2 16 -1 19 -3 4 -6 -2 -5 -13z"/>
<path d="M4233 3215 c0 -27 2 -38 4 -22 2 15 2 37 0 50 -2 12 -4 0 -4 -28z"/>
<path d="M4651 3244 c0 -11 3 -14 6 -6 3 7 2 16 -1 19 -3 4 -6 -2 -5 -13z"/>
<path d="M4340 3240 c0 -5 5 -10 10 -10 6 0 10 5 10 10 0 6 -4 10 -10 10 -5 0
-10 -4 -10 -10z"/>
<path d="M4621 3224 c0 -11 3 -14 6 -6 3 7 2 16 -1 19 -3 4 -6 -2 -5 -13z"/>
<path d="M611 3214 c0 -11 3 -14 6 -6 3 7 2 16 -1 19 -3 4 -6 -2 -5 -13z"/>
<path d="M4081 3214 c0 -11 3 -14 6 -6 3 7 2 16 -1 19 -3 4 -6 -2 -5 -13z"/>
<path d="M4313 3185 c0 -27 2 -38 4 -22 2 15 2 37 0 50 -2 12 -4 0 -4 -28z"/>
<path d="M881 3194 c0 -11 3 -14 6 -6 3 7 2 16 -1 19 -3 4 -6 -2 -5 -13z"/>
<path d="M4442 3180 c0 -14 2 -19 5 -12 2 6 2 18 0 25 -3 6 -5 1 -5 -13z"/>
<path d="M4661 3184 c0 -11 3 -14 6 -6 3 7 2 16 -1 19 -3 4 -6 -2 -5 -13z"/>
<path d="M4831 3184 c0 -11 3 -14 6 -6 3 7 2 16 -1 19 -3 4 -6 -2 -5 -13z"/>
<path d="M4042 3160 c0 -19 2 -27 5 -17 2 9 2 25 0 35 -3 9 -5 1 -5 -18z"/>
<path d="M4632 3170 c0 -14 2 -19 5 -12 2 6 2 18 0 25 -3 6 -5 1 -5 -13z"/>
<path d="M381 3164 c0 -11 3 -14 6 -6 3 7 2 16 -1 19 -3 4 -6 -2 -5 -13z"/>
<path d="M471 3164 c0 -11 3 -14 6 -6 3 7 2 16 -1 19 -3 4 -6 -2 -5 -13z"/>
<path d="M691 3164 c0 -11 3 -14 6 -6 3 7 2 16 -1 19 -3 4 -6 -2 -5 -13z"/>
<path d="M1127 3162 c-10 -10 -17 -25 -17 -33 0 -8 -24 -27 -54 -42 -61 -32
-101 -70 -91 -86 10 -17 28 -13 21 4 -10 26 119 106 157 97 24 -5 67 24 66 46
-1 15 -2 15 -6 1 -2 -9 -16 -22 -30 -28 -21 -10 -29 -9 -41 3 -23 22 0 44 51
49 l42 4 -41 1 c-29 1 -46 -4 -57 -16z"/>
<path d="M872 3140 c0 -14 2 -19 5 -12 2 6 2 18 0 25 -3 6 -5 1 -5 -13z"/>
<path d="M981 3144 c0 -11 3 -14 6 -6 3 7 2 16 -1 19 -3 4 -6 -2 -5 -13z"/>
<path d="M4244 3020 c0 -74 1 -105 3 -67 2 37 2 97 0 135 -2 37 -3 6 -3 -68z"/>
<path d="M602 3115 c0 -16 2 -22 5 -12 2 9 2 23 0 30 -3 6 -5 -1 -5 -18z"/>
<path d="M4672 3115 c0 -16 2 -22 5 -12 2 9 2 23 0 30 -3 6 -5 -1 -5 -18z"/>
<path d="M4841 3124 c0 -11 3 -14 6 -6 3 7 2 16 -1 19 -3 4 -6 -2 -5 -13z"/>
<path d="M371 3114 c0 -11 3 -14 6 -6 3 7 2 16 -1 19 -3 4 -6 -2 -5 -13z"/>
<path d="M462 3110 c0 -14 2 -19 5 -12 2 6 2 18 0 25 -3 6 -5 1 -5 -13z"/>
<path d="M4452 3105 c0 -16 2 -22 5 -12 2 9 2 23 0 30 -3 6 -5 -1 -5 -18z"/>
<path d="M4642 3095 c0 -16 2 -22 5 -12 2 9 2 23 0 30 -3 6 -5 -1 -5 -18z"/>
<path d="M682 3090 c0 -14 2 -19 5 -12 2 6 2 18 0 25 -3 6 -5 1 -5 -13z"/>
<path d="M4102 3085 c0 -16 2 -22 5 -12 2 9 2 23 0 30 -3 6 -5 -1 -5 -18z"/>
<path d="M971 3084 c0 -11 3 -14 6 -6 3 7 2 16 -1 19 -3 4 -6 -2 -5 -13z"/>
<path d="M1338 3011 c-97 -83 -149 -144 -192 -228 -30 -60 -16 -48 21 17 38
67 97 131 218 238 106 94 72 74 -47 -27z"/>
<path d="M361 3064 c0 -11 3 -14 6 -6 3 7 2 16 -1 19 -3 4 -6 -2 -5 -13z"/>
<path d="M863 3030 c0 -30 2 -43 4 -27 2 15 2 39 0 55 -2 15 -4 2 -4 -28z"/>
<path d="M752 3050 c0 -14 2 -19 5 -12 2 6 2 18 0 25 -3 6 -5 1 -5 -13z"/>
<path d="M4851 3054 c0 -11 3 -14 6 -6 3 7 2 16 -1 19 -3 4 -6 -2 -5 -13z"/>
<path d="M452 3040 c0 -14 2 -19 5 -12 2 6 2 18 0 25 -3 6 -5 1 -5 -13z"/>
<path d="M4396 3035 c-20 -18 -26 -33 -25 -62 l0 -38 15 40 c8 22 22 46 31 53
40 30 103 2 103 -46 0 -12 -15 -38 -32 -58 -30 -33 -30 -36 -8 -23 50 28 60
42 60 79 0 74 -87 108 -144 55z"/>
<path d="M4683 3010 c0 -30 2 -43 4 -27 2 15 2 39 0 55 -2 15 -4 2 -4 -28z"/>
<path d="M411 3034 c0 -11 3 -14 6 -6 3 7 2 16 -1 19 -3 4 -6 -2 -5 -13z"/>
<path d="M352 3010 c0 -14 2 -19 5 -12 2 6 2 18 0 25 -3 6 -5 1 -5 -13z"/>
<path d="M4653 2985 c0 -27 2 -38 4 -22 2 15 2 37 0 50 -2 12 -4 0 -4 -28z"/>
<path d="M593 2940 c0 -36 2 -50 4 -32 2 17 2 47 0 65 -2 17 -4 3 -4 -33z"/>
<path d="M402 2970 c0 -14 2 -19 5 -12 2 6 2 18 0 25 -3 6 -5 1 -5 -13z"/>
<path d="M443 2955 c0 -22 2 -30 4 -17 2 12 2 30 0 40 -3 9 -5 -1 -4 -23z"/>
<path d="M673 2935 c0 -33 2 -45 4 -27 2 18 2 45 0 60 -2 15 -4 0 -4 -33z"/>
<path d="M935 2979 c-5 -5 -23 -21 -38 -35 -27 -23 -28 -26 -14 -47 18 -28 61
-33 93 -12 34 22 15 46 -35 44 -34 -2 -34 -2 -6 -6 41 -6 51 -19 26 -33 -26
-13 -57 -5 -65 17 -7 18 20 53 41 53 7 0 13 7 13 15 0 17 -1 18 -15 4z"/>
<path d="M3723 2964 c-8 -20 8 -36 26 -25 15 10 8 41 -9 41 -6 0 -13 -7 -17
-16z"/>
<path d="M4862 2960 c0 -14 2 -19 5 -12 2 6 2 18 0 25 -3 6 -5 1 -5 -13z"/>
<path d="M971 2966 c2 -2 15 -9 29 -15 24 -11 24 -11 6 3 -16 13 -49 24 -35
12z"/>
<path d="M4565 2960 c3 -5 8 -10 11 -10 2 0 4 5 4 10 0 6 -5 10 -11 10 -5 0
-7 -4 -4 -10z"/>
<path d="M342 2940 c0 -14 2 -19 5 -12 2 6 2 18 0 25 -3 6 -5 1 -5 -13z"/>
<path d="M845 2921 c-13 -27 -13 -31 1 -45 8 -9 20 -16 27 -16 6 0 2 6 -9 14
-17 13 -18 18 -7 45 14 39 8 40 -12 2z"/>
<path d="M4311 2934 c0 -11 3 -14 6 -6 3 7 2 16 -1 19 -3 4 -6 -2 -5 -13z"/>
<path d="M4043 2905 c0 -22 2 -30 4 -17 2 12 2 30 0 40 -3 9 -5 -1 -4 -23z"/>
<path d="M4102 2897 c-2 -32 -7 -40 -36 -54 -32 -15 -57 -49 -56 -76 1 -7 7 2
15 20 14 33 58 62 97 64 16 1 18 3 6 6 -11 3 -18 17 -21 41 l-4 37 -1 -38z"/>
<path d="M391 2894 c0 -11 3 -14 6 -6 3 7 2 16 -1 19 -3 4 -6 -2 -5 -13z"/>
<path d="M593 2785 c0 -44 2 -61 4 -37 2 23 2 59 0 80 -2 20 -4 1 -4 -43z"/>
<path d="M753 2810 c0 -25 2 -35 4 -22 2 12 2 32 0 45 -2 12 -4 2 -4 -23z"/>
<path d="M4163 2843 c9 -2 23 -2 30 0 6 3 -1 5 -18 5 -16 0 -22 -2 -12 -5z"/>
<path d="M432 2810 c0 -19 2 -27 5 -17 2 9 2 25 0 35 -3 9 -5 1 -5 -18z"/>
<path d="M862 2820 c0 -14 2 -19 5 -12 2 6 2 18 0 25 -3 6 -5 1 -5 -13z"/>
<path d="M290 2820 c0 -6 7 -10 15 -10 8 0 15 2 15 4 0 2 -7 6 -15 10 -8 3
-15 1 -15 -4z"/>
<path d="M3860 2810 c0 -5 5 -10 10 -10 6 0 10 5 10 10 0 6 -4 10 -10 10 -5 0
-10 -4 -10 -10z"/>
<path d="M4091 2804 c0 -11 3 -14 6 -6 3 7 2 16 -1 19 -3 4 -6 -2 -5 -13z"/>
<path d="M3832 2785 c26 -31 25 -51 -2 -73 l-25 -21 36 17 c35 16 36 18 23 43
-7 14 -21 32 -31 40 -17 13 -17 13 -1 -6z"/>
<path d="M314 2685 c0 -55 1 -76 3 -47 2 29 2 74 0 100 -2 26 -3 2 -3 -53z"/>
<path d="M673 2710 c0 -25 2 -35 4 -22 2 12 2 32 0 45 -2 12 -4 2 -4 -23z"/>
<path d="M4001 2734 c0 -11 3 -14 6 -6 3 7 2 16 -1 19 -3 4 -6 -2 -5 -13z"/>
<path d="M4071 2724 c0 -11 3 -14 6 -6 3 7 2 16 -1 19 -3 4 -6 -2 -5 -13z"/>
<path d="M761 2714 c0 -11 3 -14 6 -6 3 7 2 16 -1 19 -3 4 -6 -2 -5 -13z"/>
<path d="M871 2714 c0 -11 3 -14 6 -6 3 7 2 16 -1 19 -3 4 -6 -2 -5 -13z"/>
<path d="M3872 2683 c2 -10 10 -17 17 -15 9 2 11 -3 7 -13 -3 -9 -2 -13 4 -10
16 10 12 42 -6 49 -23 9 -26 8 -22 -11z"/>
<path d="M3801 2664 c0 -11 3 -14 6 -6 3 7 2 16 -1 19 -3 4 -6 -2 -5 -13z"/>
<path d="M4692 2650 c0 -19 2 -27 5 -17 2 9 2 25 0 35 -3 9 -5 1 -5 -18z"/>
<path d="M771 2654 c0 -11 3 -14 6 -6 3 7 2 16 -1 19 -3 4 -6 -2 -5 -13z"/>
<path d="M4842 2630 c0 -19 2 -27 5 -17 2 9 2 25 0 35 -3 9 -5 1 -5 -18z"/>
<path d="M602 2630 c0 -14 2 -19 5 -12 2 6 2 18 0 25 -3 6 -5 1 -5 -13z"/>
<path d="M412 2620 c0 -14 2 -19 5 -12 2 6 2 18 0 25 -3 6 -5 1 -5 -13z"/>
<path d="M682 2610 c0 -14 2 -19 5 -12 2 6 2 18 0 25 -3 6 -5 1 -5 -13z"/>
<path d="M4021 2593 c-10 -26 -10 -27 4 -9 8 11 15 23 15 28 0 15 -7 8 -19
-19z"/>
<path d="M4775 2590 c3 -5 8 -10 11 -10 2 0 4 5 4 10 0 6 -5 10 -11 10 -5 0
-7 -4 -4 -10z"/>
<path d="M611 2564 c0 -11 3 -14 6 -6 3 7 2 16 -1 19 -3 4 -6 -2 -5 -13z"/>
<path d="M791 2564 c0 -11 3 -14 6 -6 3 7 2 16 -1 19 -3 4 -6 -2 -5 -13z"/>
<path d="M4681 2564 c0 -11 3 -14 6 -6 3 7 2 16 -1 19 -3 4 -6 -2 -5 -13z"/>
<path d="M373 2525 c0 -27 2 -38 4 -22 2 15 2 37 0 50 -2 12 -4 0 -4 -28z"/>
<path d="M323 2480 c0 -25 2 -35 4 -22 2 12 2 32 0 45 -2 12 -4 2 -4 -23z"/>
<path d="M423 2485 c0 -22 2 -30 4 -17 2 12 2 30 0 40 -3 9 -5 -1 -4 -23z"/>
<path d="M382 2425 c0 -16 2 -22 5 -12 2 9 2 23 0 30 -3 6 -5 -1 -5 -18z"/>
<path d="M4821 2414 c0 -11 3 -14 6 -6 3 7 2 16 -1 19 -3 4 -6 -2 -5 -13z"/>
<path d="M332 2385 c0 -16 2 -22 5 -12 2 9 2 23 0 30 -3 6 -5 -1 -5 -18z"/>
<path d="M431 2394 c0 -11 3 -14 6 -6 3 7 2 16 -1 19 -3 4 -6 -2 -5 -13z"/>
<path d="M392 2360 c0 -14 2 -19 5 -12 2 6 2 18 0 25 -3 6 -5 1 -5 -13z"/>
<path d="M4811 2344 c0 -11 3 -14 6 -6 3 7 2 16 -1 19 -3 4 -6 -2 -5 -13z"/>
<path d="M441 2334 c0 -11 3 -14 6 -6 3 7 2 16 -1 19 -3 4 -6 -2 -5 -13z"/>
<path d="M342 2320 c0 -14 2 -19 5 -12 2 6 2 18 0 25 -3 6 -5 1 -5 -13z"/>
<path d="M402 2310 c0 -14 2 -19 5 -12 2 6 2 18 0 25 -3 6 -5 1 -5 -13z"/>
<path d="M451 2284 c0 -11 3 -14 6 -6 3 7 2 16 -1 19 -3 4 -6 -2 -5 -13z"/>
<path d="M412 2260 c0 -14 2 -19 5 -12 2 6 2 18 0 25 -3 6 -5 1 -5 -13z"/>
<path d="M351 2254 c0 -11 3 -14 6 -6 3 7 2 16 -1 19 -3 4 -6 -2 -5 -13z"/>
<path d="M422 2210 c0 -14 2 -19 5 -12 2 6 2 18 0 25 -3 6 -5 1 -5 -13z"/>
<path d="M361 2204 c0 -11 3 -14 6 -6 3 7 2 16 -1 19 -3 4 -6 -2 -5 -13z"/>
<path d="M4771 2174 c0 -11 3 -14 6 -6 3 7 2 16 -1 19 -3 4 -6 -2 -5 -13z"/>
<path d="M371 2164 c0 -11 3 -14 6 -6 3 7 2 16 -1 19 -3 4 -6 -2 -5 -13z"/>
<path d="M431 2164 c0 -11 3 -14 6 -6 3 7 2 16 -1 19 -3 4 -6 -2 -5 -13z"/>
<path d="M4761 2134 c0 -11 3 -14 6 -6 3 7 2 16 -1 19 -3 4 -6 -2 -5 -13z"/>
<path d="M381 2124 c0 -11 3 -14 6 -6 3 7 2 16 -1 19 -3 4 -6 -2 -5 -13z"/>
<path d="M451 2094 c0 -11 3 -14 6 -6 3 7 2 16 -1 19 -3 4 -6 -2 -5 -13z"/>
<path d="M4751 2094 c0 -11 3 -14 6 -6 3 7 2 16 -1 19 -3 4 -6 -2 -5 -13z"/>
<path d="M391 2084 c0 -11 3 -14 6 -6 3 7 2 16 -1 19 -3 4 -6 -2 -5 -13z"/>
<path d="M4721 2074 c0 -11 3 -14 6 -6 3 7 2 16 -1 19 -3 4 -6 -2 -5 -13z"/>
<path d="M4741 2054 c0 -11 3 -14 6 -6 3 7 2 16 -1 19 -3 4 -6 -2 -5 -13z"/>
<path d="M440 1925 c0 -5 5 -17 10 -25 5 -8 10 -10 10 -5 0 6 -5 17 -10 25 -5
8 -10 11 -10 5z"/>
<path d="M4535 1920 c4 -6 11 -8 16 -5 14 9 11 15 -7 15 -8 0 -12 -5 -9 -10z"/>
<path d="M520 1895 c0 -5 5 -17 10 -25 5 -8 10 -10 10 -5 0 6 -5 17 -10 25 -5
8 -10 11 -10 5z"/>
<path d="M404 1815 c-8 -20 4 -35 26 -35 23 0 32 13 24 34 -8 20 -43 21 -50 1z
m36 -5 c0 -5 -4 -10 -10 -10 -5 0 -10 5 -10 10 0 6 5 10 10 10 6 0 10 -4 10
-10z"/>
<path d="M610 1710 c6 -11 13 -20 16 -20 2 0 0 9 -6 20 -6 11 -13 20 -16 20
-2 0 0 -9 6 -20z"/>
<path d="M4600 1701 c0 -6 4 -13 10 -16 6 -3 7 1 4 9 -7 18 -14 21 -14 7z"/>
<path d="M4556 1665 c-9 -26 -7 -32 5 -12 6 10 9 21 6 23 -2 3 -7 -2 -11 -11z"/>
<path d="M4596 1667 c3 -10 9 -15 12 -12 3 3 0 11 -7 18 -10 9 -11 8 -5 -6z"/>
<path d="M555 1659 c-4 -6 -5 -12 -2 -15 2 -3 7 2 10 11 7 17 1 20 -8 4z"/>
<path d="M650 1640 c6 -11 13 -20 16 -20 2 0 0 9 -6 20 -6 11 -13 20 -16 20
-2 0 0 -9 6 -20z"/>
<path d="M4560 1600 c0 -5 5 -10 11 -10 5 0 7 5 4 10 -3 6 -8 10 -11 10 -2 0
-4 -4 -4 -10z"/>
<path d="M4385 1530 c-4 -6 -3 -16 3 -22 6 -6 12 -6 17 2 4 6 3 16 -3 22 -6 6
-12 6 -17 -2z"/>
<path d="M4517 1495 c-9 -19 -15 -35 -12 -35 7 0 37 61 33 66 -3 2 -12 -12
-21 -31z"/>
<path d="M4465 1480 c-9 -16 -13 -30 -11 -30 3 0 12 14 21 30 9 17 13 30 11
30 -3 0 -12 -13 -21 -30z"/>
<path d="M669 1487 c5 -5 19 -7 32 -5 20 3 19 5 -9 9 -20 3 -29 2 -23 -4z"/>
<path d="M621 1453 c-26 -32 -34 -61 -28 -99 3 -25 4 -23 6 9 1 44 23 91 48
106 10 6 13 11 6 11 -6 0 -21 -12 -32 -27z"/>
<path d="M745 1460 c10 -11 20 -20 23 -20 3 0 -3 9 -13 20 -10 11 -20 20 -23
20 -3 0 3 -9 13 -20z"/>
<path d="M715 1400 c10 -11 20 -20 23 -20 3 0 -3 9 -13 20 -10 11 -20 20 -23
20 -3 0 3 -9 13 -20z"/>
<path d="M3710 1390 c0 -5 5 -10 10 -10 6 0 10 5 10 10 0 6 -4 10 -10 10 -5 0
-10 -4 -10 -10z"/>
<path d="M3624 1361 c7 -11 46 -35 46 -28 0 3 -12 12 -26 22 -15 9 -23 12 -20
6z"/>
<path d="M3680 1325 c0 -2 18 -14 40 -25 25 -13 38 -25 34 -32 -4 -7 -3 -8 4
-4 15 9 69 -19 85 -44 12 -21 27 -27 27 -11 0 5 -22 24 -49 42 l-49 34 21 25
22 25 -26 -23 -27 -23 -41 20 c-23 12 -41 19 -41 16z"/>
<path d="M600 1314 c0 -16 55 -97 81 -119 21 -17 21 -16 -3 10 -15 17 -38 50
-52 75 -14 25 -26 40 -26 34z"/>
<path d="M4144 1288 l-19 -23 23 19 c12 11 22 21 22 23 0 8 -8 2 -26 -19z"/>
<path d="M832 1270 c0 -14 2 -19 5 -12 2 6 2 18 0 25 -3 6 -5 1 -5 -13z"/>
<path d="M3980 1253 c0 -8 5 -13 12 -11 18 6 21 25 3 25 -8 0 -15 -7 -15 -14z"/>
<path d="M4031 1157 c-52 -56 -73 -82 -47 -57 47 44 151 160 144 160 -1 0 -45
-46 -97 -103z"/>
<path d="M3995 1198 l-50 -53 53 50 c28 27 52 51 52 52 0 8 -9 -1 -55 -49z"/>
<path d="M4299 1233 c-13 -16 -12 -17 4 -4 9 7 17 15 17 17 0 8 -8 3 -21 -13z"/>
<path d="M3694 1218 l-19 -23 23 19 c21 18 27 26 19 26 -2 0 -12 -10 -23 -22z"/>
<path d="M4249 1173 l-24 -28 28 24 c15 14 27 26 27 28 0 8 -8 1 -31 -24z"/>
<path d="M3639 1173 c-13 -16 -12 -17 4 -4 16 13 21 21 13 21 -2 0 -10 -8 -17
-17z"/>
<path d="M730 1145 c13 -14 26 -25 28 -25 3 0 -5 11 -18 25 -13 14 -26 25 -28
25 -3 0 5 -11 18 -25z"/>
<path d="M822 1148 c-6 -6 -11 -30 -10 -52 l1 -41 6 45 c5 38 10 46 30 48 51
8 49 -41 -2 -51 -21 -4 -21 -4 -1 -6 11 0 29 5 40 13 15 12 17 18 8 33 -13 22
-55 28 -72 11z"/>
<path d="M3879 1093 l-24 -28 28 24 c25 23 32 31 24 31 -2 0 -14 -12 -28 -27z"/>
<path d="M4145 1058 l-40 -43 43 40 c23 21 42 40 42 42 0 8 -9 0 -45 -39z"/>
<path d="M3819 1043 c-13 -16 -12 -17 4 -4 16 13 21 21 13 21 -2 0 -10 -8 -17
-17z"/>
<path d="M3873 1017 c-70 -57 -78 -68 -21 -27 42 29 88 71 77 69 -2 0 -27 -19
-56 -42z"/>
<path d="M820 1045 c0 -20 64 -105 122 -160 l62 -60 -61 66 c-34 36 -75 87
-92 114 -17 27 -31 45 -31 40z"/>
<path d="M3779 1013 c-13 -16 -12 -17 4 -4 9 7 17 15 17 17 0 8 -8 3 -21 -13z"/>
<path d="M1015 1000 c10 -11 20 -20 23 -20 3 0 -3 9 -13 20 -10 11 -20 20 -23
20 -3 0 3 -9 13 -20z"/>
<path d="M4029 953 l-24 -28 28 24 c15 14 27 26 27 28 0 8 -8 1 -31 -24z"/>
<path d="M4345 946 c-22 -16 -15 -50 11 -54 25 -4 47 19 38 41 -8 22 -29 28
-49 13z m35 -15 c0 -14 -18 -23 -30 -16 -6 4 -8 11 -5 16 8 12 35 12 35 0z"/>
<path d="M4050 930 c0 -5 5 -10 10 -10 6 0 10 5 10 10 0 6 -4 10 -10 10 -5 0
-10 -4 -10 -10z"/>
<path d="M3714 904 c-18 -14 -18 -15 4 -4 12 6 22 13 22 15 0 8 -5 6 -26 -11z"/>
<path d="M3969 903 c-13 -16 -12 -17 4 -4 16 13 21 21 13 21 -2 0 -10 -8 -17
-17z"/>
<path d="M1011 883 c-1 -12 12 -38 29 -56 16 -19 26 -38 22 -42 -4 -5 -2 -5 5
-1 6 3 14 2 18 -4 3 -5 11 -10 17 -10 7 0 -7 16 -30 36 -23 19 -46 50 -51 67
-7 25 -9 27 -10 10z"/>
<path d="M1010 826 c0 -2 8 -10 18 -17 15 -13 16 -12 3 4 -13 16 -21 21 -21
13z"/>
<path d="M794 779 c-10 -17 13 -36 27 -22 12 12 4 33 -11 33 -5 0 -12 -5 -16
-11z"/>
<path d="M2764 630 c0 -80 2 -112 3 -72 2 39 2 105 0 145 -1 39 -3 7 -3 -73z"/>
<path d="M3311 164 c0 -11 3 -14 6 -6 3 7 2 16 -1 19 -3 4 -6 -2 -5 -13z"/>
<path d="M3481 144 c0 -11 3 -14 6 -6 3 7 2 16 -1 19 -3 4 -6 -2 -5 -13z"/>
</g>
</svg>